<?xml version="1.0" encoding="UTF-8"?>
<svg version="1.1" xmlns="http://www.w3.org/2000/svg" width="1024" height="1024">
<path d="M0 0 C3.9559698 0.52703333 7.68638046 0.96753076 11.68554688 0.92651367 C15.20815703 0.96963008 17.5635353 1.79257789 20.87695312 2.96557617 C24.31987097 3.76732068 27.78855171 4.44575767 31.25195312 5.15307617 C48.1377082 8.71999143 64.95882467 13.21902563 80.87695312 19.96557617 C78.83703584 26.33341153 76.52339817 32.54503936 74.01757812 38.74291992 C73.64006409 39.68362335 73.26255005 40.62432678 72.87359619 41.59353638 C71.62737607 44.69779354 70.37749843 47.80055906 69.12695312 50.90307617 C67.32818583 55.36846295 65.53118915 59.83455526 63.73632812 64.30151367 C63.26702881 65.46938919 62.79772949 66.63726471 62.31420898 67.8405304 C58.94855424 76.23806692 55.64654904 84.65863032 52.37206268 93.09203148 C50.81057042 97.10941773 49.24109882 101.12369635 47.67204666 105.13813496 C46.14449393 109.04969902 44.63074889 112.96627531 43.1260643 116.88668823 C41.96155439 119.90866614 40.77696927 122.92277302 39.59570312 125.93823242 C38.96719452 127.59557907 38.96719452 127.59557907 38.32598877 129.28640747 C37.73149933 130.78867386 37.73149933 130.78867386 37.125 132.32128906 C36.78561401 133.19862198 36.44622803 134.0759549 36.09655762 134.97987366 C34.87695312 136.96557617 34.87695312 136.96557617 32.85960388 137.7978363 C30.32189862 138.01253591 29.0724752 137.37939886 26.81835938 136.21557617 C21.62305919 133.74878873 16.39067964 132.31932883 10.81445312 130.96557617 C9.26636963 130.58429565 9.26636963 130.58429565 7.68701172 130.1953125 C-10.01456641 125.95801899 -28.08683142 122.85368562 -46.31835938 122.76245117 C-47.26064896 122.75543686 -48.20293854 122.74842255 -49.17378235 122.74119568 C-52.19858635 122.72378609 -55.22319461 122.71734329 -58.24804688 122.71557617 C-59.28115997 122.71490143 -60.31427307 122.71422668 -61.37869263 122.71353149 C-76.51338943 122.72925532 -91.21722897 123.10977549 -106.12304688 125.96557617 C-107.49565674 126.21500977 -107.49565674 126.21500977 -108.89599609 126.46948242 C-127.35354973 129.88696192 -145.85922151 134.91891961 -163.16870117 142.22900391 C-165.12304688 142.96557617 -165.12304688 142.96557617 -167.12304688 142.96557617 C-167.45304687 143.62557617 -167.78304687 144.28557617 -168.12304688 144.96557617 C-169.77304687 144.96557617 -171.42304688 144.96557617 -173.12304688 144.96557617 C-175.29247994 140.36179705 -177.46122897 135.7576965 -179.62939453 131.15332031 C-180.36424104 129.59301439 -181.09926168 128.03279047 -181.83447266 126.47265625 C-182.90249788 124.2061989 -183.9698362 121.93941899 -185.03710938 119.67260742 C-185.38630432 118.93205109 -185.73549927 118.19149475 -186.09527588 117.42849731 C-187.72359945 113.96910969 -189.33889586 110.50523661 -190.91503906 107.02172852 C-191.71022949 105.26723389 -191.71022949 105.26723389 -192.52148438 103.47729492 C-192.97958496 102.45466553 -193.43768555 101.43203613 -193.90966797 100.37841797 C-195.01654903 97.86271345 -195.01654903 97.86271345 -197.12304688 95.96557617 C-197.85802866 94.16391149 -198.5358399 92.33878008 -199.18554688 90.50463867 C-202.56674962 81.4938821 -206.8598931 72.96001086 -211.12304688 64.34057617 C-213.80723265 58.88968111 -216.48429822 53.43539538 -219.14355469 47.97229004 C-220.03390644 46.14820074 -220.93344009 44.32860038 -221.83398438 42.50952148 C-222.300625 41.53853516 -222.76726562 40.56754883 -223.24804688 39.56713867 C-223.6425 38.75841309 -224.03695313 37.9496875 -224.44335938 37.11645508 C-225.25088437 34.56103294 -225.24177259 33.3975605 -224.12304688 30.96557617 C-222.53173828 29.84057617 -222.53173828 29.84057617 -220.47460938 28.96557617 C-219.72115234 28.63750977 -218.96769531 28.30944336 -218.19140625 27.97143555 C-217.38509766 27.63950195 -216.57878906 27.30756836 -215.74804688 26.96557617 C-214.93400391 26.61817383 -214.11996094 26.27077148 -213.28125 25.9128418 C-196.8450362 18.96557617 -196.8450362 18.96557617 -193.12304688 18.96557617 C-192.79304688 18.30557617 -192.46304688 17.64557617 -192.12304688 16.96557617 C-190.0300293 16.23266602 -190.0300293 16.23266602 -187.29101562 15.55151367 C-183.31524435 14.53017936 -179.36272443 13.47312647 -175.42382812 12.31713867 C-118.21243867 -4.25945807 -58.97220817 -7.88899115 0 0 Z " fill="#275A8D" transform="translate(569.123046875,263.034423828125)"/>
<path d="M0 0 C3.33004461 1.65394063 4.28846473 4.83113837 5.74169922 8.07885742 C6.0805162 8.80527435 6.41933319 9.53169128 6.76841736 10.28012085 C7.8774828 12.6665501 8.9657852 15.06185413 10.05419922 17.45776367 C10.82316325 19.12267119 11.59343747 20.78697417 12.36499023 22.45068359 C14.27043859 26.56709809 16.16017488 30.69049761 18.04522705 34.81628418 C19.42211436 37.82393046 20.81333584 40.82483507 22.20654297 43.82495117 C24.08030689 47.86304023 25.94617906 51.90459345 27.80419922 55.94995117 C30.40127406 61.60427841 33.0075085 67.2543301 35.61669922 72.90307617 C36.01780411 73.77153671 36.418909 74.63999725 36.83216858 75.53477478 C38.44527741 79.02735687 40.05844113 82.51991357 41.67184448 86.01235962 C43.8273062 90.67869675 45.97978933 95.34638572 48.12908936 100.01556396 C48.98161697 101.862979 49.8401409 103.70762377 50.69921875 105.55200195 C51.15796387 106.54312988 51.61670898 107.53425781 52.08935547 108.55541992 C52.47615479 109.38565674 52.8629541 110.21589355 53.26147461 111.07128906 C54.05419922 113.02026367 54.05419922 113.02026367 54.05419922 115.02026367 C52.49148063 116.00593049 50.87366232 116.9040507 49.24169922 117.77026367 C35.6438042 125.48755243 23.37472225 135.28629624 12.05419922 146.02026367 C10.76726173 147.10921078 9.47582031 148.19286512 8.17919922 149.27026367 C-21.11712501 174.92692237 -44.77366948 213.41352947 -57.00732422 250.21020508 C-57.57163542 251.84416179 -58.24960308 253.43799617 -58.94580078 255.02026367 C-62.30194437 256.1389782 -63.10295382 255.91200168 -66.38305664 254.93481445 C-67.29249527 254.66865829 -68.2019339 254.40250214 -69.13893127 254.12828064 C-70.13609665 253.82708817 -71.13326202 253.52589569 -72.16064453 253.21557617 C-73.21521347 252.90491714 -74.26978241 252.59425812 -75.35630798 252.27418518 C-77.65714343 251.59559272 -79.95684661 250.91315241 -82.2555542 250.22738647 C-87.80565926 248.57184215 -93.36222331 246.93834707 -98.9188385 245.30480766 C-100.21769228 244.922819 -101.51644818 244.54049737 -102.81510925 244.15785408 C-113.06972653 241.13646016 -123.34185318 238.18142684 -133.62939453 235.27416992 C-134.31117453 235.08146767 -134.99295452 234.88876541 -135.69539452 234.69022369 C-141.71525556 232.98950875 -147.73645765 231.29356963 -153.7585144 229.60064697 C-156.28133833 228.89121844 -158.8039445 228.18101499 -161.3263092 227.46995544 C-163.61136026 226.82582567 -165.89691582 226.18348158 -168.18309021 225.54335022 C-174.16457117 223.85660039 -180.0668243 222.03625215 -185.94580078 220.02026367 C-175.90864212 189.97525895 -163.5899523 160.45146727 -145.94580078 134.02026367 C-144.93453125 132.4656543 -144.93453125 132.4656543 -143.90283203 130.87963867 C-125.78702796 103.25394144 -104.17907457 76.2554991 -78.94970703 54.74682617 C-76.69346693 52.80285322 -74.51216185 50.7870285 -72.32080078 48.77026367 C-66.11601145 43.18689482 -59.58071677 38.07490675 -52.94580078 33.02026367 C-52.22183105 32.4664502 -51.49786133 31.91263672 -50.75195312 31.34204102 C-40.21858357 23.31928519 -29.48591938 15.93767639 -18.05175781 9.25756836 C-15.97078496 8.03494253 -13.90865513 6.78481323 -11.84814453 5.52807617 C-10.58963505 4.77446059 -9.33055282 4.02180033 -8.07080078 3.27026367 C-6.43498047 2.28799805 -6.43498047 2.28799805 -4.76611328 1.28588867 C-1.94580078 0.02026367 -1.94580078 0.02026367 0 0 Z " fill="#20436B" transform="translate(321.94580078125,305.979736328125)"/>
<path d="M0 0 C7.0660558 2.58182808 13.72302862 5.78204385 20.37695312 9.26953125 C23.91224029 11.09105581 27.00055312 12.48169644 31 13 C31 13.66 31 14.32 31 15 C31.76183594 15.36351562 32.52367187 15.72703125 33.30859375 16.1015625 C34.34113281 16.60429687 35.37367188 17.10703125 36.4375 17.625 C37.95150391 18.35589844 37.95150391 18.35589844 39.49609375 19.1015625 C43.86338267 21.46778593 47.90176478 24.20061914 52 27 C53.47882191 27.99139987 54.95798684 28.98228826 56.4375 29.97265625 C71.99704775 40.47763467 86.82121564 51.6957666 101 64 C101.69996094 64.59941406 102.39992188 65.19882812 103.12109375 65.81640625 C114.75916561 75.85757012 126.00369667 86.3114091 136 98 C137.16789062 99.33417969 137.16789062 99.33417969 138.359375 100.6953125 C151.22105968 115.49939393 162.65111027 131.35624842 173 148 C173.72376861 149.15116097 174.44771777 150.30220845 175.171875 151.453125 C178.71532419 157.13912486 182.14407733 162.8892817 185.5 168.6875 C185.8508667 169.28844482 186.2017334 169.88938965 186.56323242 170.50854492 C189 174.76443785 189 174.76443785 189 177 C189.66 177.33 190.32 177.66 191 178 C192.11099414 180.08959002 193.14140873 182.22250316 194.125 184.375 C194.66382813 185.53773438 195.20265625 186.70046875 195.7578125 187.8984375 C197 191 197 191 197 194 C196.0205542 194.39678955 195.0411084 194.7935791 194.03198242 195.20239258 C185.15682216 198.79813138 176.28244961 202.39580601 167.40893555 205.99560547 C162.87679642 207.83400409 158.34392856 209.67057532 153.80982971 211.50413513 C150.83084822 212.70935101 147.85302638 213.91742643 144.875 215.125 C143.82465576 215.54885986 142.77431152 215.97271973 141.69213867 216.40942383 C135.81961706 218.79431773 130.02999533 221.30870061 124.28173828 223.97998047 C122 225 122 225 119 226 C116.88100839 226.82671758 114.76563532 227.66272487 112.65234375 228.50390625 C111.3952444 229.00210986 110.138081 229.5001519 108.88085938 229.99804688 C106.90292177 230.78217633 104.92541137 231.56731913 102.94897461 232.35522461 C101.03880717 233.11620876 99.12698827 233.87290625 97.21484375 234.62890625 C96.07136475 235.08338135 94.92788574 235.53785645 93.74975586 236.00610352 C91 237 91 237 89 237 C88.67 237.66 88.34 238.32 88 239 C86.07421875 239.88671875 86.07421875 239.88671875 83.6875 240.6875 C82.90761719 240.95949219 82.12773438 241.23148438 81.32421875 241.51171875 C78.6758215 242.06810473 77.49753888 242.01732498 75 241 C73.65966797 238.99047852 73.65966797 238.99047852 72.4921875 236.37890625 C71.84830078 234.97608398 71.84830078 234.97608398 71.19140625 233.54492188 C70.53978516 232.06862305 70.53978516 232.06862305 69.875 230.5625 C69.00100237 228.62467143 68.12355722 226.68839297 67.2421875 224.75390625 C66.8591748 223.89095947 66.47616211 223.0280127 66.08154297 222.13891602 C65.06974887 219.86178475 65.06974887 219.86178475 63 218 C62.28591666 216.01643517 61.61382258 214.01684563 61 212 C61.75023437 211.43152344 62.50046875 210.86304688 63.2734375 210.27734375 C65.80134084 208.16592878 67.63188878 206.1658369 69.625 203.5625 C72.76267779 199.54179844 75.99482163 195.62247604 79.3125 191.75 C83.61414544 186.71218441 87.73269578 181.55793929 91.78637695 176.31933594 C95.68490491 171.31639925 99.79713198 166.5170446 104.02905273 161.79321289 C107.86478041 157.43191832 110.65889347 153.38774573 111.5 147.5 C110.85114477 142.95801337 109.28834494 141.14219628 106 138 C102.59943326 135.94176224 99.99052965 135.78660377 96.08789062 136.40844727 C91.6501022 137.66578606 87.8366548 140.28676494 83.9375 142.6875 C82.98302979 143.26330811 82.02855957 143.83911621 81.04516602 144.43237305 C71.39764933 150.28626854 61.89597526 156.37240174 52.3984375 162.46533203 C49.09119227 164.58151113 45.7724334 166.67775594 42.4375 168.75 C41.48746094 169.34296875 40.53742188 169.9359375 39.55859375 170.546875 C37.09284919 171.94726733 34.65734472 173.0197137 32 174 C31.11441406 173.21238281 30.22882813 172.42476562 29.31640625 171.61328125 C19.87166654 163.28264902 10.09788802 155.52116798 0 148 C-0.58426758 147.56187988 -1.16853516 147.12375977 -1.77050781 146.67236328 C-7.50604215 142.14272747 -7.50604215 142.14272747 -14 139 C-15.67653359 137.67909475 -17.34024611 136.34192868 -19 135 C-25.78513166 129.8873557 -32.95964609 125.58815258 -40.37402344 121.46435547 C-41.08719727 121.05846191 -41.80037109 120.65256836 -42.53515625 120.234375 C-43.178479 119.87569336 -43.82180176 119.51701172 -44.48461914 119.14746094 C-46 118 -46 118 -47 115 C-46.05053711 112.09375 -46.05053711 112.09375 -44.52734375 108.5 C-44.25364456 107.8457756 -43.97994537 107.19155121 -43.69795227 106.51750183 C-43.10102915 105.09322712 -42.49982136 103.67074246 -41.89489746 102.24984741 C-40.58672714 99.1756972 -39.30018886 96.09265329 -38.01266479 93.0098114 C-37.34008093 91.39946735 -36.66650176 89.78953866 -35.99197388 88.18000793 C-32.65835803 80.21658108 -29.44294354 72.20814244 -26.25 64.1875 C-25.68794492 62.77876095 -25.12576908 61.37007008 -24.56347656 59.96142578 C-22.32445807 54.35009843 -20.08954572 48.73713727 -17.85516357 43.1239624 C-15.37817299 36.90149254 -12.89895315 30.67991887 -10.41711426 24.4593811 C-9.20151712 21.41016072 -7.98892031 18.35975805 -6.77636719 15.30932617 C-6.03205929 13.44313349 -5.28760067 11.57700091 -4.54296875 9.7109375 C-4.19886459 8.84293015 -3.85476044 7.97492279 -3.50022888 7.08061218 C-1.11385232 1.11385232 -1.11385232 1.11385232 0 0 Z " fill="#7DBEE8" transform="translate(673,292)"/>
<path d="M0 0 C-0.49769701 4.30300539 -3.24642481 6.95142534 -6 10.0625 C-7.01252364 11.23107391 -8.02423157 12.40035506 -9.03515625 13.5703125 C-9.53934082 14.15071289 -10.04352539 14.73111328 -10.56298828 15.32910156 C-12.56832108 17.6608205 -14.5038608 20.04617372 -16.4375 22.4375 C-19.91072512 26.70745059 -23.46801491 30.89495673 -27.0625 35.0625 C-31.10595387 39.75139374 -35.03218552 44.50523938 -38.8671875 49.3671875 C-42.05412109 53.30124105 -45.38053799 57.1128262 -48.69677734 60.93798828 C-51.47778312 64.16331259 -54.12672377 67.4215005 -56.625 70.875 C-57.40875 71.90625 -58.1925 72.9375 -59 74 C-59.66 74 -60.32 74 -61 74 C-61.22558594 74.53496094 -61.45117188 75.06992187 -61.68359375 75.62109375 C-63.42647453 78.77069135 -65.71208962 81.35996821 -68.0625 84.0625 C-69.06719094 85.2323995 -70.07108682 86.40298221 -71.07421875 87.57421875 C-71.57228027 88.15478027 -72.0703418 88.7353418 -72.58349609 89.33349609 C-74.55239713 91.64989018 -76.46426906 94.01051477 -78.375 96.375 C-83.55499978 102.73688922 -88.95450407 108.90312542 -94.34033203 115.09033203 C-100.69093435 122.3975417 -106.99639473 129.74448087 -113.1875 137.1875 C-114.26064453 138.47720703 -114.26064453 138.47720703 -115.35546875 139.79296875 C-117.16984778 141.98743645 -117.16984778 141.98743645 -118 145 C-119.38243148 146.10594519 -120.76504707 147.21166081 -122.1484375 148.31640625 C-125.29083181 151.17373103 -127.80510267 154.53762834 -130.453125 157.84765625 C-133.1848077 161.25580683 -136.02335695 164.56707576 -138.875 167.875 C-139.89986338 169.06629976 -140.92460259 170.25770635 -141.94921875 171.44921875 C-142.45630371 172.03880371 -142.96338867 172.62838867 -143.48583984 173.23583984 C-149.19291452 179.88519837 -154.85560504 186.56875157 -160.375 193.375 C-164.60773817 198.57805902 -168.98647988 203.64564203 -173.39599609 208.69873047 C-174.44116725 209.89683783 -175.48246402 211.09833794 -176.51953125 212.3034668 C-177.47541107 213.39885085 -178.45098166 214.47749659 -179.44921875 215.53442383 C-182.83140585 219.23215918 -183.78580222 222.15239025 -184.5 227.0625 C-186.48931507 238.78234965 -190.51053177 248.69122775 -198 258 C-198.65742187 258.83273437 -199.31484375 259.66546875 -199.9921875 260.5234375 C-212.3458441 275.23017155 -228.94008628 282.99719158 -247.9375 284.8125 C-266.22938774 285.77840826 -283.36457333 279.61843044 -297.25 267.75 C-306.55572525 258.93640445 -315.3325338 246.97557034 -317 234 C-317.99 233.67 -318.98 233.34 -320 233 C-319.34 233 -318.68 233 -318 233 C-318.23396484 231.63681641 -318.23396484 231.63681641 -318.47265625 230.24609375 C-321.55346858 210.35343135 -318.7944113 192.16390082 -307.1875 175.37890625 C-296.56938448 161.31418469 -280.78934942 151.9036202 -263.33203125 149.34765625 C-259.2593117 148.90820877 -255.2956914 149.11258554 -251.21264648 149.31835938 C-239.6401716 149.82662755 -233.50289589 147.55187625 -224.34130859 140.69091797 C-219.57300731 137.24720007 -214.53466735 134.20059535 -209.5625 131.0625 C-207.38927461 129.67268223 -205.21737617 128.28078715 -203.046875 126.88671875 C-202.00982422 126.22075684 -200.97277344 125.55479492 -199.90429688 124.86865234 C-195.3648452 121.94792579 -190.83507342 119.0123845 -186.30737305 116.07348633 C-180.68572234 112.43006171 -175.03177416 108.83857813 -169.375 105.25 C-161.64984203 100.34822261 -153.96739767 95.38574653 -146.3125 90.375 C-137.03677492 84.30566956 -127.69918565 78.34448674 -118.31054688 72.45166016 C-114.36896887 69.97526299 -110.43498 67.48686224 -106.5 65 C-104.91407805 63.99867328 -103.32814057 62.99737117 -101.7421875 61.99609375 C-98.59993083 60.01168053 -95.45944939 58.02450062 -92.3203125 56.03515625 C-77.27266935 46.50398943 -62.1729043 37.06277534 -46.875 27.9375 C-36.34258645 21.6534115 -25.99330341 15.09193191 -15.64990234 8.50292969 C-13.41500126 7.08118913 -11.17660366 5.66510944 -8.9375 4.25 C-8.26428711 3.81929199 -7.59107422 3.38858398 -6.89746094 2.94482422 C-2.22720141 0 -2.22720141 0 0 0 Z " fill="#3D4756" transform="translate(764,446)"/>
<path d="M0 0 C1.27685547 2.45483398 1.27685547 2.45483398 2.3671875 5.74609375 C2.77501465 6.96272705 3.1828418 8.17936035 3.60302734 9.43286133 C4.02851764 10.76726371 4.45247114 12.10215695 4.875 13.4375 C5.09343567 14.1117099 5.31187134 14.7859198 5.53692627 15.4805603 C13.82216878 41.06951857 18.95343814 67.47313377 21.40527344 94.25366211 C21.68934162 97.34134466 22.01506998 100.04520993 23 103 C23.10094017 104.44637047 23.14828165 105.89684821 23.16113281 107.34667969 C23.17059937 108.22852936 23.18006592 109.11037903 23.18981934 110.01895142 C23.19640564 111.45589859 23.19640564 111.45589859 23.203125 112.921875 C23.21009399 113.92165375 23.21706299 114.9214325 23.22424316 115.95150757 C23.24176867 119.21771376 23.24797818 122.48374855 23.25 125.75 C23.25100708 126.86034607 23.25201416 127.97069214 23.25305176 129.11468506 C23.24189812 147.26525819 22.53620495 165.01063929 20 183 C19.85014648 184.07862305 19.70029297 185.15724609 19.54589844 186.26855469 C14.53091186 221.07532991 14.53091186 221.07532991 4 229 C-1.55367926 232.20603458 -6.06134491 232.1588557 -12.17260742 230.81201172 C-17.5251031 229.27480417 -22.46982155 226.86149735 -27.5 224.5 C-30.05278404 223.32238267 -32.60996705 222.15451527 -35.16796875 220.98828125 C-36.19479012 220.51899956 -36.19479012 220.51899956 -37.24235535 220.04023743 C-43.017676 217.41435514 -48.8383527 214.90231124 -54.67578125 212.41796875 C-55.59531586 212.02646637 -56.51485046 211.63496399 -57.46224976 211.2315979 C-61.13849625 209.66851592 -64.81571182 208.10783018 -68.49658203 206.55566406 C-77.41315517 202.79452748 -86.29199114 198.98553282 -94.984375 194.7265625 C-95.63271805 194.41462448 -96.2810611 194.10268646 -96.9490509 193.78129578 C-103.11973874 190.68948515 -107.79246846 186.62259461 -110 180 C-110.57640912 171.38067295 -109.77824693 162.82759064 -109 154.25 C-105.99345521 120.25109875 -109.99395402 87.0291839 -120.30737305 54.51928711 C-121.08259188 51.69958913 -121.56213391 48.889601 -122 46 C-121.29133789 45.73074707 -120.58267578 45.46149414 -119.85253906 45.18408203 C-102.7430573 38.66450887 -85.74689699 31.89930784 -68.8125 24.9375 C-54.14363054 18.90710233 -39.45386213 12.95681533 -24.66796875 7.21875 C-21.13054993 5.8444925 -17.61272644 4.43698757 -14.11328125 2.96875 C-13.40212158 2.67258789 -12.69096191 2.37642578 -11.95825195 2.07128906 C-10.19743277 1.33280312 -8.44209613 0.58127711 -6.6875 -0.171875 C-3.74326817 -1.07910923 -2.76638251 -1.2726724 0 0 Z " fill="#65A6DA" transform="translate(881,510)"/>
<path d="M0 0 C0.99854004 0.2673999 1.99708008 0.5347998 3.02587891 0.81030273 C6.74875972 1.80645922 10.47261907 2.79891424 14.19677734 3.7902832 C15.80511756 4.2189691 17.41319462 4.64864364 19.02099609 5.0793457 C21.33882415 5.70006436 23.65759123 6.31716172 25.9765625 6.93359375 C26.68930328 7.12529648 27.40204407 7.31699921 28.13638306 7.51451111 C33.78680387 9.01057979 39.13992594 10.17235512 45 10 C45 10.66 45 11.32 45 12 C50.79422988 13.61757838 56.58850294 15.23500199 62.3828125 16.85229492 C64.34538888 17.4001061 66.30795436 17.94795631 68.27050781 18.49584961 C69.21506836 18.75954346 70.15962891 19.0232373 71.1328125 19.29492188 C72.07578186 19.55822296 73.01875122 19.82152405 73.99029541 20.09280396 C75.88670553 20.62188949 77.7833121 21.15027141 79.68011475 21.677948 C84.22082397 22.94155015 88.75859553 24.21378174 93.29003906 25.51025391 C94.11460602 25.74436478 94.93917297 25.97847565 95.78872681 26.21968079 C97.32686325 26.65667674 98.86387592 27.09765589 100.39950562 27.54338074 C103.77627772 28.49837277 106.45521397 29 110 29 C110 29.66 110 30.32 110 31 C111.19625 31.12375 112.3925 31.2475 113.625 31.375 C117.28747847 31.75387708 120.53087628 32.77735754 124 34 C123.87882813 34.77601563 123.75765625 35.55203125 123.6328125 36.3515625 C123.08232147 39.90011237 122.54023645 43.44987476 122 47 C121.82082031 48.16273438 121.64164063 49.32546875 121.45703125 50.5234375 C121.28558594 51.67070313 121.11414063 52.81796875 120.9375 54 C120.70353516 55.546875 120.70353516 55.546875 120.46484375 57.125 C119.17373825 67.887829 118.79934476 78.60375429 118.8125 89.4375 C118.81191086 90.47707855 118.81191086 90.47707855 118.81130981 91.53765869 C118.82017128 104.67789808 119.71091149 117.62744481 121.33129883 130.66577148 C121.43337646 131.54563721 121.5354541 132.42550293 121.640625 133.33203125 C121.73762695 134.12327393 121.83462891 134.9145166 121.93457031 135.72973633 C122.11016705 141.82254991 118.99783702 146.64619119 115 151 C112.19921875 152.74609375 112.19921875 152.74609375 108.6875 154.4375 C107.66366211 154.93165405 107.66366211 154.93165405 106.61914062 155.43579102 C104.08836939 156.64383043 101.54570782 157.8237595 99 159 C97.96439941 159.48082031 96.92879883 159.96164062 95.86181641 160.45703125 C79.53196907 168.0072145 63.04671505 175.18951338 46.5 182.25 C45.62666016 182.62397919 44.75332031 182.99795837 43.85351562 183.38327026 C41.35224032 184.45294891 38.84847438 185.51655162 36.34375 186.578125 C35.23308167 187.0537664 35.23308167 187.0537664 34.09997559 187.53901672 C26.70753068 190.6539296 20.01610881 193.23861233 12 191 C5.79493527 188.26128251 1.81327185 184.54380643 -0.8828125 178.32421875 C-17.43090137 129.08497531 -13.67666677 72.07860688 -5.5 21.75 C-5.29858398 20.49453369 -5.09716797 19.23906738 -4.88964844 17.94555664 C-4.58849121 16.17039673 -4.58849121 16.17039673 -4.28125 14.359375 C-4.10658203 13.32264648 -3.93191406 12.28591797 -3.75195312 11.21777344 C-2.83664144 7.30095266 -1.47467158 3.74144668 0 0 Z " fill="#1E3857" transform="translate(131,550)"/>
<path d="M0 0 C0.66 0 1.32 0 2 0 C2.54805298 1.21671387 2.54805298 1.21671387 3.10717773 2.45800781 C10.43491043 18.70453426 17.85577227 34.89971758 25.5 51 C30.90946573 62.40048749 36.26421926 73.82337882 41.49926758 85.30517578 C42.16072331 86.7558923 42.82330154 88.20609759 43.48706055 89.65576172 C44.40134481 91.65425593 45.3108722 93.65483879 46.21875 95.65625 C46.9912207 97.35491211 46.9912207 97.35491211 47.77929688 99.08789062 C48.75541882 101.41652715 49.49880476 103.53604015 50 106 C48.07010782 107.19982444 46.13080772 108.38452818 44.1875 109.5625 C43.10855469 110.22378906 42.02960938 110.88507813 40.91796875 111.56640625 C38 113 38 113 35 112 C40.445 108.535 40.445 108.535 46 105 C45.12670645 100.63353223 44.04578623 97.55766507 42.21875 93.55859375 C41.9335701 92.93131378 41.6483902 92.30403381 41.35456848 91.65774536 C40.40856987 89.58175604 39.45453274 87.50957771 38.5 85.4375 C37.82816961 83.96941096 37.15654267 82.50122879 36.48510742 81.03295898 C30.46501999 67.8986809 24.28579204 54.83976426 18.10189819 41.78207397 C14.04659643 33.21876204 10.00027861 24.65167577 6 16.0625 C5.50153564 15.00297119 5.00307129 13.94344238 4.48950195 12.85180664 C4.03921631 11.88106201 3.58893066 10.91031738 3.125 9.91015625 C2.54105469 8.65924194 2.54105469 8.65924194 1.9453125 7.38305664 C0.97250673 4.93069168 0.43487688 2.59740627 0 0 Z " fill="#1D3B5E" transform="translate(326,315)"/>
<path d="M0 0 C2.475 0.495 2.475 0.495 5 1 C2.83373533 3.16626467 1.44124149 3.72765721 -1.40234375 4.76953125 C-2.28833252 5.09888672 -3.17432129 5.42824219 -4.0871582 5.76757812 C-5.027771 6.11240234 -5.96838379 6.45722656 -6.9375 6.8125 C-14.43763948 9.60905426 -21.79906412 12.49228416 -29 16 C-27.70778047 20.06351723 -26.21420451 23.91153589 -24.42578125 27.78125 C-23.92651123 28.86365967 -23.42724121 29.94606934 -22.9128418 31.0612793 C-22.384729 32.19605713 -21.85661621 33.33083496 -21.3125 34.5 C-20.77085205 35.66893799 -20.2292041 36.83787598 -19.67114258 38.04223633 C-16.4236588 45.02347633 -13.08650258 51.94107269 -9.60546875 58.80859375 C-7.69628923 62.60372676 -5.83088783 66.41656438 -4 70.25 C-3.52663208 71.21812622 -3.52663208 71.21812622 -3.04370117 72.20581055 C-2.30079194 73.77615162 -1.64226702 75.38588157 -1 77 C-1.33 77.66 -1.66 78.32 -2 79 C-5.44679447 77.27660276 -6.28183163 73.16438345 -7.75 69.75 C-12.26610367 59.46660671 -17.12038926 49.36153438 -22.03808594 39.26660156 C-23.70062911 35.84847295 -25.35056161 32.42446596 -27 29 C-27.51755859 27.95215332 -28.03511719 26.90430664 -28.56835938 25.82470703 C-29.03564453 24.85259277 -29.50292969 23.88047852 -29.984375 22.87890625 C-30.60650879 21.60575562 -30.60650879 21.60575562 -31.24121094 20.30688477 C-32.11174293 17.66027703 -32.18118705 16.51736692 -31 14 C-29.40869141 12.875 -29.40869141 12.875 -27.3515625 12 C-26.59810547 11.67193359 -25.84464844 11.34386719 -25.06835938 11.00585938 C-23.85889648 10.50795898 -23.85889648 10.50795898 -22.625 10 C-21.40393555 9.47889648 -21.40393555 9.47889648 -20.15820312 8.94726562 C-3.72198933 2 -3.72198933 2 0 2 C0 1.34 0 0.68 0 0 Z " fill="#1E3E63" transform="translate(376,280)"/>
<path d="M0 0 C2.97859825 3.55598806 4.78244081 7.56264685 6.6875 11.75 C11.13524477 21.36992888 15.77202096 30.901087 20.73046875 40.26953125 C22 43 22 43 22 46 C22.64960693 45.73783691 23.29921387 45.47567383 23.96850586 45.20556641 C26.95534772 44.004882 29.94634345 42.81489266 32.9375 41.625 C33.95908203 41.2125 34.98066406 40.8 36.03320312 40.375 C41.98986355 38.01517287 47.7030433 36.19504288 54 35 C54 35.66 54 36.32 54 37 C50.25099982 38.31536809 46.50063275 39.62679501 42.75 40.9375 C41.15478516 41.49727539 41.15478516 41.49727539 39.52734375 42.06835938 C38.50253906 42.42607422 37.47773438 42.78378906 36.421875 43.15234375 C35.47924805 43.48226318 34.53662109 43.81218262 33.56542969 44.15209961 C31 45 31 45 28.72363281 45.49047852 C28.15483398 45.65862061 27.58603516 45.8267627 27 46 C26.67 46.66 26.34 47.32 26 48 C24.35 48 22.7 48 21 48 C18.81194177 43.3597479 16.62489329 38.71902165 14.4387207 34.07788086 C13.69712627 32.50386155 12.95527101 30.9299651 12.21313477 29.35620117 C10.1121546 24.90064984 8.01648203 20.44268169 5.92877197 15.980896 C5.07833512 14.16707408 4.22184544 12.35609331 3.36474609 10.54541016 C2.90793457 9.56749512 2.45112305 8.58958008 1.98046875 7.58203125 C1.59141357 6.75550049 1.2023584 5.92896973 0.80151367 5.07739258 C0 3 0 3 0 0 Z " fill="#1E3E64" transform="translate(375,360)"/>
<path d="M0 0 C0.61319092 0.19037842 1.22638184 0.38075684 1.8581543 0.5769043 C1.17209106 1.05148071 1.17209106 1.05148071 0.47216797 1.53564453 C-8.69332798 7.89319404 -17.64107008 14.3400924 -26.1418457 21.5769043 C-27.22200335 22.48383542 -28.30276252 23.39005046 -29.3840332 24.2956543 C-35.72828913 29.62149261 -41.98983184 35.02896415 -48.1418457 40.5769043 C-48.1418457 37.5769043 -48.1418457 37.5769043 -46.55981445 35.6315918 C-40.69482274 29.90012879 -34.55871631 24.6779103 -28.1418457 19.5769043 C-26.92493523 18.59347472 -25.7088287 17.60904974 -24.4934082 16.6237793 C-20.73147615 13.58007352 -16.94372421 10.57050942 -13.1418457 7.5769043 C-12.31160889 6.91851562 -12.31160889 6.91851562 -11.46459961 6.24682617 C-9.97248383 5.07152635 -8.46389627 3.91722529 -6.9543457 2.7644043 C-6.11516602 2.11858398 -5.27598633 1.47276367 -4.41137695 0.80737305 C-2.1418457 -0.4230957 -2.1418457 -0.4230957 0 0 Z " fill="#1C3453" transform="translate(287.141845703125,327.423095703125)"/>
<path d="M0 0 C-0.87068565 4.51045718 -3.47830429 7.25595381 -6.4375 10.625 C-6.94087891 11.21023438 -7.44425781 11.79546875 -7.96289062 12.3984375 C-9.91834357 14.66291952 -11.88384805 16.88384805 -14 19 C-14.99 19 -15.98 19 -17 19 C-16.67 17.35 -16.34 15.7 -16 14 C-17.65 15.32 -19.3 16.64 -21 18 C-21.33 17.01 -21.66 16.02 -22 15 C-21.43410156 14.67386719 -20.86820313 14.34773438 -20.28515625 14.01171875 C-19.18494141 13.35623047 -19.18494141 13.35623047 -18.0625 12.6875 C-17.33160156 12.25824219 -16.60070312 11.82898438 -15.84765625 11.38671875 C-13.70022588 10.04889746 -13.70022588 10.04889746 -13 7 C-10.56640625 5.17578125 -10.56640625 5.17578125 -7.5625 3.3125 C-6.07943359 2.37857422 -6.07943359 2.37857422 -4.56640625 1.42578125 C-2 0 -2 0 0 0 Z " fill="#44586F" transform="translate(764,446)"/>
<path d="M0 0 C0.99 1.0209375 0.99 1.0209375 2 2.0625 C4.97190839 5.06010213 8.18536092 7.74787019 11.42578125 10.44921875 C11.94527344 10.96097656 12.46476562 11.47273437 13 12 C13 12.66 13 13.32 13 14 C13.69222656 14.25910156 14.38445312 14.51820313 15.09765625 14.78515625 C18.33651195 16.14085493 21.34512208 17.77512343 24.4375 19.4375 C34.36204206 24.55805719 44.92473008 26.2599474 56 27 C54 29 54 29 51.26953125 29.15234375 C32.38322514 27.97861851 16.25859685 20.61081764 3 7 C0 3.48571429 0 3.48571429 0 0 Z " fill="#2B3038" transform="translate(459,702)"/>
<path d="M0 0 C0.66 0 1.32 0 2 0 C0.23826909 5.08944485 -2.58679944 9.51177358 -5.3125 14.125 C-12.64852843 26.71352498 -18.83414593 39.81125616 -25 53 C-25.94829019 50.45220636 -26.08564294 49.25732829 -25.21484375 46.64086914 C-24.58255859 45.35104126 -24.58255859 45.35104126 -23.9375 44.03515625 C-23.2420105 42.5972876 -23.2420105 42.5972876 -22.5324707 41.13037109 C-21.77389771 39.6117749 -21.77389771 39.6117749 -21 38.0625 C-20.49106201 37.02432129 -19.98212402 35.98614258 -19.45776367 34.91650391 C-7.2993041 10.25258576 -7.2993041 10.25258576 0 0 Z " fill="#1A304A" transform="translate(176,440)"/>
<path d="M0 0 C1.30859375 2.59765625 1.30859375 2.59765625 2.4375 6.0625 C2.64331696 6.68157227 2.84913391 7.30064453 3.06118774 7.93847656 C3.72506759 9.95372841 4.36346283 11.97596086 5 14 C5.44526957 15.37907788 5.8910708 16.75798421 6.33740234 18.13671875 C14.33288317 43.07402903 14.33288317 43.07402903 14 53 C12.40787016 50.07272602 11.48651626 47.34021266 10.73828125 44.09765625 C10.50971436 43.13424316 10.28114746 42.17083008 10.0456543 41.17822266 C9.80371338 40.15003418 9.56177246 39.1218457 9.3125 38.0625 C4.98064663 19.58694994 4.98064663 19.58694994 -2 2 C-2.53625 2.144375 -3.0725 2.28875 -3.625 2.4375 C-6.39915827 3.09453748 -9.18525388 3.55219948 -12 4 C-8.80823431 0.3042713 -4.75411464 -2.20926504 0 0 Z " fill="#5891BE" transform="translate(881,510)"/>
<path d="M0 0 C0.66 0 1.32 0 2 0 C1.97905273 0.90129639 1.95810547 1.80259277 1.93652344 2.73120117 C1.86752759 6.14016351 1.8178095 9.54836278 1.78027344 12.95776367 C1.76040551 14.42110042 1.73330118 15.88436049 1.69824219 17.34741211 C1.46411163 27.38403839 2.35415512 35.51854264 6 45 C5.01 44.67 4.02 44.34 3 44 C1.5522078 41.10441559 1 39.25811062 1 36 C0.01 35.67 -0.98 35.34 -2 35 C-1.34 35 -0.68 35 0 35 C-0.15597656 34.09121094 -0.31195313 33.18242188 -0.47265625 32.24609375 C-2.16664556 21.3080833 -2.41064351 10.92000908 0 0 Z " fill="#2A3038" transform="translate(446,644)"/>
<path d="M0 0 C-0.96703857 0.61331177 -0.96703857 0.61331177 -1.95361328 1.23901367 C-7.1044283 4.51067561 -12.24387106 7.79870057 -17.3671875 11.11328125 C-18.43710937 11.80357422 -19.50703125 12.49386719 -20.609375 13.20507812 C-22.81190549 14.62644798 -25.01238465 16.05100093 -27.2109375 17.47851562 C-28.273125 18.16236328 -29.3353125 18.84621094 -30.4296875 19.55078125 C-31.38085449 20.16606689 -32.33202148 20.78135254 -33.31201172 21.4152832 C-35.82511661 22.89689663 -38.26386225 24.00258559 -41 25 C-39.87640109 21.62920328 -39.50933217 21.41537068 -36.59765625 19.72265625 C-35.8804541 19.29694336 -35.16325195 18.87123047 -34.42431641 18.43261719 C-33.64491699 17.98047852 -32.86551758 17.52833984 -32.0625 17.0625 C-26.9280852 14.0268771 -21.85839293 10.95398903 -16.94140625 7.57421875 C-16.13372803 7.01919678 -15.3260498 6.4641748 -14.49389648 5.89233398 C-12.93564083 4.81200977 -11.38411372 3.7219038 -9.84008789 2.62133789 C-9.13231201 2.13270264 -8.42453613 1.64406738 -7.6953125 1.140625 C-7.07672363 0.70266602 -6.45813477 0.26470703 -5.82080078 -0.18652344 C-3.50020447 -1.22329294 -2.3453131 -0.84024742 0 0 Z " fill="#2D3643" transform="translate(608,546)"/>
<path d="M0 0 C0 0.99 0 1.98 0 3 C-3.98211255 4.79969705 -7.96572188 6.59602794 -11.95068359 8.3894043 C-13.30297653 8.9985322 -14.65487359 9.60853984 -16.00634766 10.21948242 C-36.41265698 19.44228963 -36.41265698 19.44228963 -41 18 C-27.33977095 11.98525082 -13.67858292 5.97291326 0 0 Z " fill="#182940" transform="translate(205,717)"/>
<path d="M0 0 C0.33 0 0.66 0 1 0 C0.67 11.22 0.34 22.44 0 34 C-0.33 34 -0.66 34 -1 34 C-1.33 37.63 -1.66 41.26 -2 45 C-2.33 45 -2.66 45 -3 45 C-3 31.8 -3 18.6 -3 5 C-2.67 5.66 -2.34 6.32 -2 7 C-1.34 7 -0.68 7 0 7 C0 4.69 0 2.38 0 0 Z " fill="#254060" transform="translate(249,614)"/>
<path d="M0 0 C-1.16226352 2.74716833 -2.23565724 4.22357226 -4.4375 6.3125 C-7.68274801 10.05117754 -8.08004633 14.40901948 -8.90600586 19.16577148 C-9.92216607 24.94540552 -11.20102028 30.79307449 -14 36 C-15.485 36.495 -15.485 36.495 -17 37 C-15 31 -15 31 -14.26953125 29.01953125 C-12.70348717 24.65527643 -11.81621195 20.67887185 -11.3125 16.0625 C-10.52560237 10.73212385 -6.48033019 0 0 0 Z " fill="#292F39" transform="translate(588,656)"/>
<path d="M0 0 C0.8971875 0.309375 0.8971875 0.309375 1.8125 0.625 C1.01984741 1.12314209 1.01984741 1.12314209 0.21118164 1.63134766 C-2.23500041 3.16964907 -4.68000303 4.70981576 -7.125 6.25 C-7.95580078 6.77207031 -8.78660156 7.29414062 -9.64257812 7.83203125 C-15.21588588 11.34516687 -20.72419539 14.9431539 -26.1875 18.625 C-26.8475 18.295 -27.5075 17.965 -28.1875 17.625 C-25.56029662 14.85517168 -22.9873082 12.69080873 -19.74609375 10.6796875 C-18.91529297 10.16019531 -18.08449219 9.64070312 -17.22851562 9.10546875 C-16.36935547 8.57566406 -15.51019531 8.04585937 -14.625 7.5 C-12.91525111 6.43507799 -11.20561111 5.36998114 -9.49609375 4.3046875 C-8.74126709 3.83788574 -7.98644043 3.37108398 -7.20874023 2.89013672 C-2.03419587 -0.34871929 -2.03419587 -0.34871929 0 0 Z " fill="#2E3847" transform="translate(664.1875,508.375)"/>
<path d="M0 0 C1.57774849 3.96634292 0.3338364 6.43382042 -1.23828125 10.26171875 C-1.97401367 12.06286133 -1.97401367 12.06286133 -2.72460938 13.90039062 C-2.9852417 14.52147705 -3.24587402 15.14256348 -3.5144043 15.7824707 C-4.31193369 17.68614823 -5.08976652 19.59701042 -5.86523438 21.50976562 C-9.72904649 30.86452324 -9.72904649 30.86452324 -12 32 C-11.54939339 29.89416513 -11.08924044 27.79037128 -10.625 25.6875 C-10.36976563 24.51574219 -10.11453125 23.34398437 -9.8515625 22.13671875 C-9 19 -9 19 -7 16 C-6.14063458 14.22067289 -5.30984739 12.42740425 -4.5 10.625 C-4.0771875 9.68914062 -3.654375 8.75328125 -3.21875 7.7890625 C-2.09230271 5.2112312 -1.02828182 2.6183102 0 0 Z " fill="#254C78" transform="translate(646,288)"/>
<path d="M0 0 C0.8971875 0.309375 0.8971875 0.309375 1.8125 0.625 C-1.57926039 2.75655408 -4.97658848 4.87906905 -8.375 7 C-9.33470703 7.60328125 -10.29441406 8.2065625 -11.28320312 8.828125 C-12.21455078 9.40820312 -13.14589844 9.98828125 -14.10546875 10.5859375 C-14.95906982 11.12009277 -15.8126709 11.65424805 -16.69213867 12.20458984 C-19.13466312 13.59492418 -21.55575115 14.64814099 -24.1875 15.625 C-24.1875 14.965 -24.1875 14.305 -24.1875 13.625 C-22.4909668 12.328125 -22.4909668 12.328125 -20.13671875 10.875 C-19.29302734 10.3490625 -18.44933594 9.823125 -17.58007812 9.28125 C-16.68740234 8.7346875 -15.79472656 8.188125 -14.875 7.625 C-13.12883115 6.54178772 -11.38273443 5.45845916 -9.63671875 4.375 C-8.85643311 3.89546875 -8.07614746 3.4159375 -7.2722168 2.921875 C-2.01895973 -0.34610738 -2.01895973 -0.34610738 0 0 Z " fill="#303C4B" transform="translate(691.1875,491.375)"/>
<path d="M0 0 C0.33 0 0.66 0 1 0 C1.67476789 3.8736343 2.33837032 7.74910183 3 11.625 C3.19078125 12.71941406 3.3815625 13.81382812 3.578125 14.94140625 C3.75859375 16.00488281 3.9390625 17.06835938 4.125 18.1640625 C4.29257813 19.13811035 4.46015625 20.1121582 4.6328125 21.11572266 C5.01375517 24.10804756 5.06252962 26.98685417 5 30 C4.34 29.67 3.68 29.34 3 29 C0.15797806 19.36580636 -0.41573899 9.99313361 0 0 Z " fill="#18283E" transform="translate(123,684)"/>
<path d="M0 0 C0.33 0.66 0.66 1.32 1 2 C-1.52497221 7.7385732 -5.06001792 11.04987903 -9.8046875 15.06640625 C-12.56436182 17.49708025 -14.75151065 20.09872342 -17 23 C-17 18.55435497 -14.1361647 16.34881277 -11.3125 13.1875 C-10.24573599 11.97297039 -9.17932638 10.7581294 -8.11328125 9.54296875 C-7.59330566 8.95435059 -7.07333008 8.36573242 -6.53759766 7.75927734 C-4.31073461 5.21136132 -2.15404853 2.60963578 0 0 Z " fill="#71ABD3" transform="translate(758,477)"/>
<path d="M0 0 C-0.58536753 3.66060821 -2.083239 5.54535164 -4.5625 8.25 C-5.20316406 8.95640625 -5.84382812 9.6628125 -6.50390625 10.390625 C-7.24447266 11.18726563 -7.24447266 11.18726563 -8 12 C-8.66 11.67 -9.32 11.34 -10 11 C-10 10.34 -10 9.68 -10 9 C-11.32 9 -12.64 9 -14 9 C-10.73787201 5.33010602 -5.2007339 0 0 0 Z " fill="#405466" transform="translate(764,446)"/>
<path d="M0 0 C1.20171204 3.60513612 0.70719075 4.43559272 -0.65234375 7.88671875 C-1.19858398 9.2934082 -1.19858398 9.2934082 -1.75585938 10.72851562 C-2.14580078 11.70498047 -2.53574219 12.68144531 -2.9375 13.6875 C-3.32357422 14.67556641 -3.70964844 15.66363281 -4.10742188 16.68164062 C-5.06332125 19.12449459 -6.02778293 21.56360441 -7 24 C-8.32 24 -9.64 24 -11 24 C-11.66 23.34 -12.32 22.68 -13 22 C-12.38342529 21.92652344 -11.76685059 21.85304688 -11.1315918 21.77734375 C-8.84200128 21.1942132 -8.84200128 21.1942132 -7.82739258 19.06640625 C-7.51954834 18.24011719 -7.2117041 17.41382813 -6.89453125 16.5625 C-6.55099609 15.66789063 -6.20746094 14.77328125 -5.85351562 13.8515625 C-5.50998047 12.91054688 -5.16644531 11.96953125 -4.8125 11 C-4.11248474 9.14515012 -3.41075343 7.29094666 -2.70703125 5.4375 C-2.4025708 4.61121094 -2.09811035 3.78492188 -1.78442383 2.93359375 C-1 1 -1 1 0 0 Z " fill="#1B314D" transform="translate(270,537)"/>
<path d="M0 0 C0.66 0 1.32 0 2 0 C1.125 5.75 1.125 5.75 0 8 C7.92 9.98 7.92 9.98 16 12 C16 12.33 16 12.66 16 13 C9.18686447 12.58751372 3.40385663 11.37562423 -3 9 C-2.01 6.03 -1.02 3.06 0 0 Z " fill="#182C47" transform="translate(139,517)"/>
<path d="M0 0 C-7 4.66666667 -14 9.33333333 -21 14 C-21.66 13.67 -22.32 13.34 -23 13 C-19.47607111 9.07123333 -15.37223019 6.46170116 -10.9375 3.6875 C-10.21755859 3.22021484 -9.49761719 2.75292969 -8.75585938 2.27148438 C-8.06169922 1.83513672 -7.36753906 1.39878906 -6.65234375 0.94921875 C-6.02320068 0.55049561 -5.39405762 0.15177246 -4.74584961 -0.2590332 C-3 -1 -3 -1 0 0 Z " fill="#2F3947" transform="translate(634,529)"/>
<path d="M0 0 C0.66 0.33 1.32 0.66 2 1 C3.74285532 7.72244195 2.92401878 12.82707145 0 19 C-0.66 19.99 -1.32 20.98 -2 22 C-2.99 21.67 -3.98 21.34 -5 21 C-4.03320312 19.75863281 -4.03320312 19.75863281 -3.046875 18.4921875 C-0.64245172 14.88555259 -0.34068099 11.37876261 -0.25 7.125 C-0.22035156 6.43664062 -0.19070312 5.74828125 -0.16015625 5.0390625 C-0.09019464 3.35998374 -0.04274789 1.67999188 0 0 Z " fill="#1A2D44" transform="translate(250,677)"/>
<path d="M0 0 C0.66 0 1.32 0 2 0 C-1.43582565 7.48833795 -6.90734116 14.47852792 -13 20 C-11.586887 14.53259852 -8.9785073 10.93043927 -5.5 6.625 C-4.75169922 5.66400391 -4.75169922 5.66400391 -3.98828125 4.68359375 C-2.71191452 3.07872513 -1.36126136 1.53351974 0 0 Z " fill="#1B324D" transform="translate(198,409)"/>
<path d="M0 0 C0.33 0.99 0.66 1.98 1 3 C0.03900391 3.8353125 0.03900391 3.8353125 -0.94140625 4.6875 C-6.38430153 9.4895775 -11.38687651 14.3939857 -16 20 C-16.99 19.67 -17.98 19.34 -19 19 C-12.73 12.73 -6.46 6.46 0 0 Z " fill="#1B3352" transform="translate(334,448)"/>
<path d="M0 0 C0.8971875 0.309375 0.8971875 0.309375 1.8125 0.625 C-3.44180346 5.0496766 -7.4741369 5.15685089 -14.1875 4.625 C-17.20143067 4.35343461 -20.18503164 4.01241527 -23.1875 3.625 C-23.1875 3.295 -23.1875 2.965 -23.1875 2.625 C-21.92292969 2.57601562 -20.65835937 2.52703125 -19.35546875 2.4765625 C-17.69529053 2.4015262 -16.03513536 2.32597873 -14.375 2.25 C-13.54162109 2.2190625 -12.70824219 2.188125 -11.84960938 2.15625 C-11.04716797 2.11757813 -10.24472656 2.07890625 -9.41796875 2.0390625 C-8.31038208 1.99193115 -8.31038208 1.99193115 -7.18041992 1.94384766 C-4.17317839 1.46271848 -3.13157529 -0.53684148 0 0 Z " fill="#2C343D" transform="translate(531.1875,593.375)"/>
<path d="M0 0 C0.33 0.99 0.66 1.98 1 3 C-1.64 5.97 -4.28 8.94 -7 12 C-7.66 11.67 -8.32 11.34 -9 11 C-8.71125 10.46375 -8.4225 9.9275 -8.125 9.375 C-6.83288192 6.64719516 -5.91441408 3.87387282 -5 1 C-3.35 0.67 -1.7 0.34 0 0 Z " fill="#3E4F64" transform="translate(749,463)"/>
<path d="M0 0 C0.66 0.33 1.32 0.66 2 1 C-2.19977919 4.6578722 -6.87201939 7.79365864 -12 10 C-12.66 9.67 -13.32 9.34 -14 9 C-12.65117186 4.95351557 -10.65173931 4.04497401 -7 2 C-6.01 2.33 -5.02 2.66 -4 3 C-1.80961577 1.62831762 -1.80961577 1.62831762 0 0 Z " fill="#44576C" transform="translate(738,463)"/>
<path d="M0 0 C-2.62042843 1.67394001 -5.24705905 3.3378835 -7.875 5 C-8.62136719 5.47695313 -9.36773438 5.95390625 -10.13671875 6.4453125 C-10.85214844 6.89648438 -11.56757812 7.34765625 -12.3046875 7.8125 C-13.2944458 8.44091797 -13.2944458 8.44091797 -14.30419922 9.08203125 C-16 10 -16 10 -18 10 C-18 9.34 -18 8.68 -18 8 C-15.59078898 6.33162878 -13.20151477 4.80613412 -10.6875 3.3125 C-9.99720703 2.88388672 -9.30691406 2.45527344 -8.59570312 2.01367188 C-7.92861328 1.61341797 -7.26152344 1.21316406 -6.57421875 0.80078125 C-5.65515747 0.24644409 -5.65515747 0.24644409 -4.7175293 -0.3190918 C-3 -1 -3 -1 0 0 Z " fill="#323F50" transform="translate(712,480)"/>
<path d="M0 0 C2.18359375 0.3671875 2.18359375 0.3671875 4 1 C3.19175781 1.60328125 2.38351562 2.2065625 1.55078125 2.828125 C0.47132158 3.6353731 -0.60810367 4.44266722 -1.6875 5.25 C-2.74324219 6.03890625 -3.79898437 6.8278125 -4.88671875 7.640625 C-7.62824018 9.71826483 -10.3257768 11.83680647 -13 14 C-11.43162794 10.15035948 -9.01898195 7.81314228 -6 5 C-5.49855469 4.51660156 -4.99710937 4.03320312 -4.48046875 3.53515625 C-2.9375 2.125 -2.9375 2.125 0 0 Z " fill="#292F38" transform="translate(473,606)"/>
<path d="M0 0 C0.66 0.33 1.32 0.66 2 1 C-1.465 8.425 -1.465 8.425 -5 16 C-5.66 16 -6.32 16 -7 16 C-7.66 17.98 -8.32 19.96 -9 22 C-10.0326802 19.21176345 -10.04509293 18.1322726 -9.0625 15.25 C-8.711875 14.5075 -8.36125 13.765 -8 13 C-7.34 13 -6.68 13 -6 13 C-4.02 8.71 -2.04 4.42 0 0 Z " fill="#203C5D" transform="translate(157,478)"/>
<path d="M0 0 C0.99 0.33 1.98 0.66 3 1 C-0.96 4.96 -4.92 8.92 -9 13 C-9.33 12.01 -9.66 11.02 -10 10 C-6.7 6.7 -3.4 3.4 0 0 Z " fill="#1B3351" transform="translate(231,372)"/>
<path d="M0 0 C0.99 0.33 1.98 0.66 3 1 C2.27683594 2.12148438 2.27683594 2.12148438 1.5390625 3.265625 C0.59160156 4.74289062 0.59160156 4.74289062 -0.375 6.25 C-1.31472656 7.71179688 -1.31472656 7.71179688 -2.2734375 9.203125 C-3.65134852 11.43521615 -4.88312642 13.63087422 -6 16 C-6.71484375 14.390625 -6.71484375 14.390625 -7 12 C-5.56640625 8.984375 -5.56640625 8.984375 -3.5625 5.75 C-2.90378906 4.67234375 -2.24507813 3.5946875 -1.56640625 2.484375 C-1.04949219 1.66453125 -0.53257812 0.8446875 0 0 Z " fill="#272D36" transform="translate(457,621)"/>
<path d="M0 0 C0.66 0 1.32 0 2 0 C0.80620288 2.82170228 -0.46032317 4.50523275 -2.5625 6.8125 C-5.31354766 9.97620481 -5.74869992 12.81166533 -6 17 C-8 14 -8 14 -7.83984375 11.61328125 C-6.86864005 8.59125673 -5.53810005 6.6641878 -3.5625 4.1875 C-2.94503906 3.39730469 -2.32757812 2.60710938 -1.69140625 1.79296875 C-0.85416016 0.90544922 -0.85416016 0.90544922 0 0 Z " fill="#2F3642" transform="translate(586,656)"/>
<path d="M0 0 C1.98 0 3.96 0 6 0 C5.71926927 2.14729141 5.42511501 4.29283193 5.125 6.4375 C4.96257812 7.63246094 4.80015625 8.82742188 4.6328125 10.05859375 C4.31957031 11.51458984 4.31957031 11.51458984 4 13 C3.01 13.495 3.01 13.495 2 14 C2.33 9.71 2.66 5.42 3 1 C2.01 0.67 1.02 0.34 0 0 Z " fill="#1B304C" transform="translate(249,584)"/>
<path d="M0 0 C0.66 0.99 1.32 1.98 2 3 C1.484375 3.7425 0.96875 4.485 0.4375 5.25 C-1.24942772 7.83215454 -1.24942772 7.83215454 -0.6875 10.3125 C-0.460625 10.869375 -0.23375 11.42625 0 12 C-3.60654039 9.59563974 -3.85452932 8.05320393 -5 4 C-3.35 2.68 -1.7 1.36 0 0 Z " fill="#73AED4" transform="translate(739,500)"/>
<path d="M0 0 C0.66 0.33 1.32 0.66 2 1 C-1.3 4.96 -4.6 8.92 -8 13 C-8.33 12.01 -8.66 11.02 -9 10 C-6.03 6.7 -3.06 3.4 0 0 Z " fill="#19304D" transform="translate(210,395)"/>
<path d="M0 0 C1.32 0 2.64 0 4 0 C4 0.99 4 1.98 4 3 C-2.51244208 3.69508823 -8.5510809 4.31909709 -15 3 C-15 2.67 -15 2.34 -15 2 C-10.05 2 -5.1 2 0 2 C0 1.34 0 0.68 0 0 Z " fill="#2E6093" transform="translate(516,259)"/>
<path d="M0 0 C0.66 0 1.32 0 2 0 C3.32 4.29 4.64 8.58 6 13 C5.01 12.67 4.02 12.34 3 12 C1.5522078 9.10441559 1 7.25811062 1 4 C0.01 3.67 -0.98 3.34 -2 3 C-1.34 3 -0.68 3 0 3 C0 2.01 0 1.02 0 0 Z " fill="#2F353E" transform="translate(446,676)"/>
<path d="M0 0 C5.66104589 0.49658297 9.87674471 1.54510684 15 4 C14.67 4.99 14.34 5.98 14 7 C13.67 6.34 13.34 5.68 13 5 C11.02039447 4.42453328 9.01467206 3.93714583 7 3.5 C4.98532794 3.06285417 2.97960553 2.57546672 1 2 C0.67 1.34 0.34 0.68 0 0 Z " fill="#274D77" transform="translate(635,279)"/>
<path d="M0 0 C1.06528748 2.73019786 1.07998186 3.79298812 0.00390625 6.578125 C-0.47175781 7.45984375 -0.94742187 8.3415625 -1.4375 9.25 C-1.91058594 10.14203125 -2.38367188 11.0340625 -2.87109375 11.953125 C-3.24363281 12.62859375 -3.61617188 13.3040625 -4 14 C-4.66 14 -5.32 14 -6 14 C-4.45941767 8.98491285 -2.97068161 4.3852919 0 0 Z " fill="#1A314D" transform="translate(277,522)"/>
<path d="M0 0 C-2.25597827 2.25597827 -4.04603867 2.96574192 -7 4.125 C-7.886875 4.47820313 -8.77375 4.83140625 -9.6875 5.1953125 C-12 6 -12 6 -14 6 C-14 5.34 -14 4.68 -14 4 C-9.22642128 1.28608722 -5.65611463 -0.56561146 0 0 Z " fill="#2C323C" transform="translate(492,599)"/>
<path d="M0 0 C0.33 0.99 0.66 1.98 1 3 C-0.65234375 5.48046875 -0.65234375 5.48046875 -2.9375 8.1875 C-3.68902344 9.08855469 -4.44054687 9.98960937 -5.21484375 10.91796875 C-5.80394531 11.60503906 -6.39304687 12.29210937 -7 13 C-7.66 12.67 -8.32 12.34 -9 12 C-6.03 8.04 -3.06 4.08 0 0 Z " fill="#1A314F" transform="translate(305,479)"/>
<path d="M0 0 C0.680625 0.7425 1.36125 1.485 2.0625 2.25 C5.03073132 5.24381953 8.28714872 7.03437285 12 9 C9.61888337 9.85152515 8.47701408 10.20739743 6.11328125 9.1796875 C1.20877026 5.62631077 1.20877026 5.62631077 0.0625 2.1875 C0.0315625 1.1046875 0.0315625 1.1046875 0 0 Z " fill="#17283C" transform="translate(133,730)"/>
<path d="M0 0 C0.56203125 0.22300781 1.1240625 0.44601562 1.703125 0.67578125 C-0.08497197 1.8479117 -1.87746625 3.01333651 -3.671875 4.17578125 C-4.66960937 4.82546875 -5.66734375 5.47515625 -6.6953125 6.14453125 C-9.296875 7.67578125 -9.296875 7.67578125 -11.296875 7.67578125 C-11.296875 7.01578125 -11.296875 6.35578125 -11.296875 5.67578125 C-9.46875 4.1328125 -9.46875 4.1328125 -7.046875 2.48828125 C-6.25796875 1.93785156 -5.4690625 1.38742187 -4.65625 0.8203125 C-2.296875 -0.32421875 -2.296875 -0.32421875 0 0 Z " fill="#1C3758" transform="translate(301.296875,318.32421875)"/>
<path d="M0 0 C0.99 0.33 1.98 0.66 3 1 C1.21475351 2.19713017 -0.5784028 3.38247279 -2.375 4.5625 C-3.87160156 5.55443359 -3.87160156 5.55443359 -5.3984375 6.56640625 C-6.25695312 7.03949219 -7.11546875 7.51257813 -8 8 C-8.66 7.67 -9.32 7.34 -10 7 C-7.19527484 3.70032335 -3.83081791 1.91540896 0 0 Z " fill="#323E4F" transform="translate(724,470)"/>
<path d="M0 0 C0.66 0.33 1.32 0.66 2 1 C-6.261959 6.74031891 -6.261959 6.74031891 -11 6 C-7.57874946 3.12614955 -4.16111563 1.54115394 0 0 Z " fill="#17273E" transform="translate(221,710)"/>
<path d="M0 0 C0.66 0 1.32 0 2 0 C2 1.98 2 3.96 2 6 C1.34 6 0.68 6 0 6 C-0.66 7.32 -1.32 8.64 -2 10 C-1.125 2.25 -1.125 2.25 0 0 Z " fill="#1B314C" transform="translate(143,506)"/>
<path d="M0 0 C0 0.66 0 1.32 0 2 C-1.64453125 3.54296875 -1.64453125 3.54296875 -3.8125 5.1875 C-4.52019531 5.73792969 -5.22789062 6.28835938 -5.95703125 6.85546875 C-6.63121094 7.23316406 -7.30539062 7.61085938 -8 8 C-8.99 7.67 -9.98 7.34 -11 7 C-9.54634731 5.82750647 -8.08692581 4.66216184 -6.625 3.5 C-5.40683594 2.52546875 -5.40683594 2.52546875 -4.1640625 1.53125 C-2 0 -2 0 0 0 Z " fill="#1E3A5C" transform="translate(360,429)"/>
<path d="M0 0 C-1.49097658 3.7952131 -3.75700849 5.61042731 -7 8 C-7.66 7.67 -8.32 7.34 -9 7 C-7.88121617 5.82737096 -6.75476949 4.66204862 -5.625 3.5 C-4.68527344 2.52546875 -4.68527344 2.52546875 -3.7265625 1.53125 C-2 0 -2 0 0 0 Z " fill="#2E353F" transform="translate(562,707)"/>
<path d="M0 0 C2.61885488 2.36944013 4.41866551 4.83733102 6 8 C5.67 8.99 5.34 9.98 5 11 C4.15504811 9.92570402 3.32445142 8.84010798 2.5 7.75 C2.0359375 7.14671875 1.571875 6.5434375 1.09375 5.921875 C0 4 0 4 0 0 Z " fill="#262C34" transform="translate(452,691)"/>
<path d="M0 0 C1.32 0.33 2.64 0.66 4 1 C-0.455 3.97 -0.455 3.97 -5 7 C-5.66 6.67 -6.32 6.34 -7 6 C-4.74259377 3.66475218 -2.7194239 1.81294927 0 0 Z " fill="#29313C" transform="translate(551,579)"/>
<path d="M0 0 C0.66 0 1.32 0 2 0 C1.67 1.98 1.34 3.96 1 6 C0.34 6 -0.32 6 -1 6 C-1 6.99 -1 7.98 -1 9 C-0.34 9.33 0.32 9.66 1 10 C-0.32 9.67 -1.64 9.34 -3 9 C-2.01 6.03 -1.02 3.06 0 0 Z " fill="#203653" transform="translate(139,517)"/>
<path d="M0 0 C0.66 0.33 1.32 0.66 2 1 C-2.455 3.97 -2.455 3.97 -7 7 C-7.66 6.67 -8.32 6.34 -9 6 C-8.375 4.0625 -8.375 4.0625 -7 2 C-3.9375 1.3125 -3.9375 1.3125 -1 1 C-0.67 0.67 -0.34 0.34 0 0 Z " fill="#445569" transform="translate(699,487)"/>
<path d="M0 0 C1.43791516 0.14168137 2.8753237 0.28851043 4.3125 0.4375 C5.11300781 0.51871094 5.91351562 0.59992188 6.73828125 0.68359375 C9 1 9 1 12 2 C12 2.66 12 3.32 12 4 C7.80530429 3.40075776 3.99000166 2.42500059 0 1 C0 0.67 0 0.34 0 0 Z " fill="#274E78" transform="translate(622,275)"/>
<path d="M0 0 C1.4391134 0.28359887 2.87625518 0.57721399 4.3125 0.875 C5.11300781 1.03742187 5.91351563 1.19984375 6.73828125 1.3671875 C9 2 9 2 12 4 C10.37399059 3.9129995 8.74910322 3.8048219 7.125 3.6875 C6.22007812 3.62949219 5.31515625 3.57148437 4.3828125 3.51171875 C2 3 2 3 0 0 Z " fill="#182D49" transform="translate(237,553)"/>
<path d="M0 0 C1.41805831 0.28482368 2.83440379 0.57818144 4.25 0.875 C5.03890625 1.03742187 5.8278125 1.19984375 6.640625 1.3671875 C8.96831144 1.99150075 10.89031952 2.84838542 13 4 C7.73946963 4.31563182 4.55426184 3.66590937 0 1 C0 0.67 0 0.34 0 0 Z " fill="#182D48" transform="translate(167,533)"/>
<path d="M0 0 C0 3.58912412 -0.66436554 4.10857029 -3 6.6875 C-3.556875 7.31011719 -4.11375 7.93273437 -4.6875 8.57421875 C-5.120625 9.04472656 -5.55375 9.51523437 -6 10 C-6.99 9.67 -7.98 9.34 -9 9 C-6.03 6.03 -3.06 3.06 0 0 Z " fill="#172D4A" transform="translate(324,458)"/>
<path d="M0 0 C0.59296875 0.20238281 1.1859375 0.40476562 1.796875 0.61328125 C0.50874158 1.4520658 -0.78375756 2.28414908 -2.078125 3.11328125 C-2.79742188 3.57734375 -3.51671875 4.04140625 -4.2578125 4.51953125 C-6.203125 5.61328125 -6.203125 5.61328125 -8.203125 5.61328125 C-8.203125 4.95328125 -8.203125 4.29328125 -8.203125 3.61328125 C-2.99894173 -0.52640999 -2.99894173 -0.52640999 0 0 Z " fill="#2D3440" transform="translate(564.203125,572.38671875)"/>
<path d="M0 0 C0.33 0.99 0.66 1.98 1 3 C-1.3125 6.1875 -1.3125 6.1875 -4 9 C-4.66 9 -5.32 9 -6 9 C-4.47291037 5.56404834 -2.40072955 2.88087546 0 0 Z " fill="#2E3745" transform="translate(642,590)"/>
<path d="M0 0 C0.53625 0.2475 1.0725 0.495 1.625 0.75 C-3.79038462 4.81153846 -3.79038462 4.81153846 -6.75 4.5 C-7.28625 4.2525 -7.8225 4.005 -8.375 3.75 C-2.95961538 -0.31153846 -2.95961538 -0.31153846 0 0 Z " fill="#323E4D" transform="translate(664.375,508.25)"/>
<path d="M0 0 C0.66 0.33 1.32 0.66 2 1 C1.01 2.485 1.01 2.485 0 4 C0 4.99 0 5.98 0 7 C-0.99 7.495 -0.99 7.495 -2 8 C-2 6.68 -2 5.36 -2 4 C-2.99 3.67 -3.98 3.34 -5 3 C-2.625 1.4375 -2.625 1.4375 0 0 Z " fill="#4A6178" transform="translate(755,453)"/>
<path d="M0 0 C0.66 0.33 1.32 0.66 2 1 C1.67 1.99 1.34 2.98 1 4 C-0.84765625 4.73046875 -0.84765625 4.73046875 -3.0625 5.1875 C-3.79597656 5.34605469 -4.52945312 5.50460937 -5.28515625 5.66796875 C-6.13400391 5.83232422 -6.13400391 5.83232422 -7 6 C-6 3 -6 3 -3.0625 1.25 C-2.051875 0.8375 -1.04125 0.425 0 0 Z " fill="#264D79" transform="translate(362,425)"/>
<path d="M0 0 C0.66 0 1.32 0 2 0 C5 5.625 5 5.625 5 9 C4.34 9 3.68 9 3 9 C0 3.375 0 3.375 0 0 Z " fill="#1E3E63" transform="translate(392,397)"/>
<path d="M0 0 C0 4.38968456 -2.12805101 5.76905739 -5 9 C-5.66 8.67 -6.32 8.34 -7 8 C-4.69 5.36 -2.38 2.72 0 0 Z " fill="#2A303D" transform="translate(596,645)"/>
<path d="M0 0 C6.625 0.75 6.625 0.75 10 3 C3.375 3.125 3.375 3.125 0 2 C0 1.34 0 0.68 0 0 Z " fill="#172B46" transform="translate(156,530)"/>
<path d="M0 0 C0.66 0.33 1.32 0.66 2 1 C-2.296875 5.00390625 -2.296875 5.00390625 -4 6 C-6.203125 5.65234375 -6.203125 5.65234375 -8 5 C-6.71475739 4.13619741 -5.42157581 3.28419631 -4.125 2.4375 C-3.04605469 1.72400391 -3.04605469 1.72400391 -1.9453125 0.99609375 C-1.30335938 0.66738281 -0.66140625 0.33867187 0 0 Z " fill="#445468" transform="translate(685,496)"/>
<path d="M0 0 C0.99 0.33 1.98 0.66 3 1 C2.67 2.32 2.34 3.64 2 5 C0.68 5.33 -0.64 5.66 -2 6 C-1.34 4.02 -0.68 2.04 0 0 Z " fill="#43556B" transform="translate(736,475)"/>
<path d="M0 0 C0.66 0.33 1.32 0.66 2 1 C-0.475 4.465 -0.475 4.465 -3 8 C-3.33 7.01 -3.66 6.02 -4 5 C-2.0625 2.3125 -2.0625 2.3125 0 0 Z " fill="#192D48" transform="translate(183,430)"/>
<path d="M0 0 C1.485 0.99 1.485 0.99 3 2 C2.01 2 1.02 2 0 2 C0 1.34 0 0.68 0 0 Z " fill="#6299C4" transform="translate(865,740)"/>
<path d="M0 0 C0.99 0.33 1.98 0.66 3 1 C2.01 1.33 1.02 1.66 0 2 C0 1.34 0 0.68 0 0 Z " fill="#414751" transform="translate(481,725)"/>
<path d="M0 0 C1.485 0.99 1.485 0.99 3 2 C2.01 2 1.02 2 0 2 C0 1.34 0 0.68 0 0 Z " fill="#659DC9" transform="translate(808,715)"/>
<path d="M0 0 C1 4 1 4 1 4 Z " fill="#6EA8D5" transform="translate(768,598)"/>
<path d="M0 0 C0 3 0 3 0 3 Z " fill="#749CB8" transform="translate(753,449)"/>
<path d="M0 0 C0.99 0.33 1.98 0.66 3 1 C2.01 1 1.02 1 0 1 C0 0.67 0 0.34 0 0 Z " fill="#386695" transform="translate(554,389)"/>
<path d="M0 0 C0.99 0.495 0.99 0.495 2 1 C1.01 1.495 1.01 1.495 0 2 C0 1.34 0 0.68 0 0 Z " fill="#6095C0" transform="translate(869,742)"/>
<path d="" fill="#65A0CD" transform="translate(0,0)"/>
<path d="" fill="#6DA7D4" transform="translate(0,0)"/>
<path d="" fill="#6FA9D7" transform="translate(0,0)"/>
<path d="" fill="#67A1CF" transform="translate(0,0)"/>
<path d="" fill="#6FA8D4" transform="translate(0,0)"/>
<path d="" fill="#6BA3CF" transform="translate(0,0)"/>
<path d="M0 0 C0.66 0 1.32 0 2 0 C1.67 0.66 1.34 1.32 1 2 C0.67 1.34 0.34 0.68 0 0 Z " fill="#81BDE2" transform="translate(765,430)"/>
<path d="M0 0 C0.66 0.66 1.32 1.32 2 2 C1.34 2 0.68 2 0 2 C0 1.34 0 0.68 0 0 Z " fill="#2C5682" transform="translate(353,320)"/>
<path d="M0 0 C3 1 3 1 3 1 Z " fill="#43729C" transform="translate(645,280)"/>
<path d="M0 0 C2 1 2 1 2 1 Z " fill="#649CC9" transform="translate(851,734)"/>
<path d="M0 0 C2 1 2 1 2 1 Z " fill="#404750" transform="translate(484,726)"/>
<path d="M0 0 C2 1 2 1 2 1 Z " fill="#68A0CE" transform="translate(816,719)"/>
<path d="M0 0 C2 1 2 1 2 1 Z " fill="#49525F" transform="translate(581,671)"/>
<path d="" fill="#6BA4D0" transform="translate(0,0)"/>
<path d="M0 0 C2 1 2 1 2 1 Z " fill="#424953" transform="translate(480,600)"/>
<path d="M0 0 C2 1 2 1 2 1 Z " fill="#233D5E" transform="translate(230,576)"/>
<path d="" fill="#6FA8D3" transform="translate(0,0)"/>
<path d="M0 0 C2 1 2 1 2 1 Z " fill="#213957" transform="translate(142,552)"/>
<path d="" fill="#4A5462" transform="translate(0,0)"/>
<path d="M0 0 C2 1 2 1 2 1 Z " fill="#76B4DD" transform="translate(785,544)"/>
<path d="M0 0 C2 1 2 1 2 1 Z " fill="#7AB3D7" transform="translate(750,535)"/>
<path d="M0 0 C2 1 2 1 2 1 Z " fill="#7CB8DF" transform="translate(753,534)"/>
<path d="" fill="#78AFD4" transform="translate(0,0)"/>
<path d="M0 0 C2 1 2 1 2 1 Z " fill="#79B4DD" transform="translate(825,528)"/>
<path d="M0 0 C2 1 2 1 2 1 Z " fill="#7FBCE3" transform="translate(772,526)"/>
<path d="M0 0 C2 1 2 1 2 1 Z " fill="#79B5DE" transform="translate(845,520)"/>
<path d="M0 0 C2 1 2 1 2 1 Z " fill="#78B3DB" transform="translate(865,512)"/>
<path d="M0 0 C2 1 2 1 2 1 Z " fill="#83BFE5" transform="translate(828,503)"/>
<path d="M0 0 C2 1 2 1 2 1 Z " fill="#81BFE4" transform="translate(848,495)"/>
<path d="" fill="#7BB4D8" transform="translate(0,0)"/>
<path d="" fill="#80B3D3" transform="translate(0,0)"/>
<path d="M0 0 C2 1 2 1 2 1 Z " fill="#7A9EBB" transform="translate(756,448)"/>
<path d="M0 0 C2 1 2 1 2 1 Z " fill="#7CB4DB" transform="translate(680,447)"/>
<path d="M0 0 C2 1 2 1 2 1 Z " fill="#7AB2D9" transform="translate(640,419)"/>
<path d="" fill="#71AAD1" transform="translate(0,0)"/>
<path d="M0 0 C2 1 2 1 2 1 Z " fill="#335F8E" transform="translate(465,389)"/>
<path d="M0 0 C2 1 2 1 2 1 Z " fill="#386694" transform="translate(545,388)"/>
<path d="" fill="#7EB7DE" transform="translate(0,0)"/>
<path d="" fill="#2D5683" transform="translate(0,0)"/>
<path d="M0 0 C2 1 2 1 2 1 Z " fill="#2E5683" transform="translate(360,337)"/>
<path d="M0 0 C2 1 2 1 2 1 Z " fill="#7DB5D8" transform="translate(717,312)"/>
<path d="M0 0 C2 1 2 1 2 1 Z " fill="#2B4E75" transform="translate(320,304)"/>
<path d="" fill="#4F82B0" transform="translate(0,0)"/>
<path d="" fill="#4C7FAC" transform="translate(0,0)"/>
<path d="M0 0 C2 1 2 1 2 1 Z " fill="#2D5781" transform="translate(371,281)"/>
<path d="M0 0 C2 1 2 1 2 1 Z " fill="#376593" transform="translate(585,264)"/>
<path d="M0 0 C2 1 2 1 2 1 Z " fill="#305D89" transform="translate(433,264)"/>
<path d="" fill="#24364B" transform="translate(0,0)"/>
<path d="" fill="#22354C" transform="translate(0,0)"/>
<path d="" fill="#5C90BA" transform="translate(0,0)"/>
<path d="" fill="#649CC6" transform="translate(0,0)"/>
<path d="" fill="#659CC8" transform="translate(0,0)"/>
<path d="" fill="#22354D" transform="translate(0,0)"/>
<path d="" fill="#5D92BC" transform="translate(0,0)"/>
<path d="" fill="#5E95BD" transform="translate(0,0)"/>
<path d="" fill="#659CC7" transform="translate(0,0)"/>
<path d="" fill="#233752" transform="translate(0,0)"/>
<path d="" fill="#22374F" transform="translate(0,0)"/>
<path d="" fill="#649AC8" transform="translate(0,0)"/>
<path d="" fill="#3E444B" transform="translate(0,0)"/>
<path d="" fill="#659CCA" transform="translate(0,0)"/>
<path d="" fill="#404751" transform="translate(0,0)"/>
<path d="" fill="#414A52" transform="translate(0,0)"/>
<path d="" fill="#414952" transform="translate(0,0)"/>
<path d="" fill="#41464F" transform="translate(0,0)"/>
<path d="" fill="#679DCC" transform="translate(0,0)"/>
<path d="" fill="#639BC8" transform="translate(0,0)"/>
<path d="" fill="#649BC9" transform="translate(0,0)"/>
<path d="" fill="#434951" transform="translate(0,0)"/>
<path d="" fill="#649DCB" transform="translate(0,0)"/>
<path d="" fill="#434951" transform="translate(0,0)"/>
<path d="" fill="#233A54" transform="translate(0,0)"/>
<path d="" fill="#6399C3" transform="translate(0,0)"/>
<path d="" fill="#3F454E" transform="translate(0,0)"/>
<path d="" fill="#3F444F" transform="translate(0,0)"/>
<path d="" fill="#669CCA" transform="translate(0,0)"/>
<path d="" fill="#233953" transform="translate(0,0)"/>
<path d="" fill="#669DCB" transform="translate(0,0)"/>
<path d="" fill="#659DCB" transform="translate(0,0)"/>
<path d="" fill="#3F454E" transform="translate(0,0)"/>
<path d="" fill="#233952" transform="translate(0,0)"/>
<path d="" fill="#669ECB" transform="translate(0,0)"/>
<path d="" fill="#454C59" transform="translate(0,0)"/>
<path d="" fill="#243A54" transform="translate(0,0)"/>
<path d="" fill="#659DCA" transform="translate(0,0)"/>
<path d="" fill="#243A55" transform="translate(0,0)"/>
<path d="" fill="#659FCC" transform="translate(0,0)"/>
<path d="" fill="#253D57" transform="translate(0,0)"/>
<path d="" fill="#243A56" transform="translate(0,0)"/>
<path d="" fill="#243C57" transform="translate(0,0)"/>
<path d="" fill="#474E59" transform="translate(0,0)"/>
<path d="" fill="#669FCC" transform="translate(0,0)"/>
<path d="" fill="#4A505C" transform="translate(0,0)"/>
<path d="" fill="#48525E" transform="translate(0,0)"/>
<path d="" fill="#485261" transform="translate(0,0)"/>
<path d="" fill="#6DA5D2" transform="translate(0,0)"/>
<path d="" fill="#4D5463" transform="translate(0,0)"/>
<path d="" fill="#40464E" transform="translate(0,0)"/>
<path d="" fill="#273D5A" transform="translate(0,0)"/>
<path d="" fill="#414750" transform="translate(0,0)"/>
<path d="" fill="#4A5464" transform="translate(0,0)"/>
<path d="" fill="#434953" transform="translate(0,0)"/>
<path d="" fill="#414A51" transform="translate(0,0)"/>
<path d="" fill="#6EA9D7" transform="translate(0,0)"/>
<path d="" fill="#4D5A67" transform="translate(0,0)"/>
<path d="" fill="#6CA7D6" transform="translate(0,0)"/>
<path d="" fill="#67A2CF" transform="translate(0,0)"/>
<path d="" fill="#434B54" transform="translate(0,0)"/>
<path d="" fill="#6AA2CE" transform="translate(0,0)"/>
<path d="" fill="#454F59" transform="translate(0,0)"/>
<path d="" fill="#454F59" transform="translate(0,0)"/>
<path d="" fill="#6AA4D0" transform="translate(0,0)"/>
<path d="" fill="#454F5B" transform="translate(0,0)"/>
<path d="" fill="#434D5B" transform="translate(0,0)"/>
<path d="" fill="#71A8D4" transform="translate(0,0)"/>
<path d="" fill="#46515B" transform="translate(0,0)"/>
<path d="" fill="#495461" transform="translate(0,0)"/>
<path d="" fill="#244162" transform="translate(0,0)"/>
<path d="" fill="#6FA8D5" transform="translate(0,0)"/>
<path d="" fill="#274463" transform="translate(0,0)"/>
<path d="" fill="#68A1CE" transform="translate(0,0)"/>
<path d="" fill="#73ABD6" transform="translate(0,0)"/>
<path d="" fill="#45505F" transform="translate(0,0)"/>
<path d="" fill="#4F6174" transform="translate(0,0)"/>
<path d="" fill="#506076" transform="translate(0,0)"/>
<path d="" fill="#284368" transform="translate(0,0)"/>
<path d="" fill="#264161" transform="translate(0,0)"/>
<path d="" fill="#274362" transform="translate(0,0)"/>
<path d="" fill="#465362" transform="translate(0,0)"/>
<path d="" fill="#72ACD7" transform="translate(0,0)"/>
<path d="" fill="#274260" transform="translate(0,0)"/>
<path d="" fill="#546677" transform="translate(0,0)"/>
<path d="" fill="#274365" transform="translate(0,0)"/>
<path d="" fill="#74B0DC" transform="translate(0,0)"/>
<path d="" fill="#485563" transform="translate(0,0)"/>
<path d="" fill="#2B4666" transform="translate(0,0)"/>
<path d="" fill="#274362" transform="translate(0,0)"/>
<path d="" fill="#274264" transform="translate(0,0)"/>
<path d="" fill="#294263" transform="translate(0,0)"/>
<path d="" fill="#76B2DB" transform="translate(0,0)"/>
<path d="" fill="#223E60" transform="translate(0,0)"/>
<path d="" fill="#2A4365" transform="translate(0,0)"/>
<path d="" fill="#4B5867" transform="translate(0,0)"/>
<path d="" fill="#495766" transform="translate(0,0)"/>
<path d="" fill="#6EA5CF" transform="translate(0,0)"/>
<path d="" fill="#465563" transform="translate(0,0)"/>
<path d="" fill="#505D6B" transform="translate(0,0)"/>
<path d="" fill="#7BB7DE" transform="translate(0,0)"/>
<path d="" fill="#7EB8DD" transform="translate(0,0)"/>
<path d="" fill="#77B4DD" transform="translate(0,0)"/>
<path d="" fill="#4A5A68" transform="translate(0,0)"/>
<path d="" fill="#495968" transform="translate(0,0)"/>
<path d="" fill="#7AB7DD" transform="translate(0,0)"/>
<path d="" fill="#213654" transform="translate(0,0)"/>
<path d="" fill="#4C596B" transform="translate(0,0)"/>
<path d="" fill="#81BDE1" transform="translate(0,0)"/>
<path d="" fill="#7AB5DF" transform="translate(0,0)"/>
<path d="" fill="#79ADD0" transform="translate(0,0)"/>
<path d="" fill="#83BFE5" transform="translate(0,0)"/>
<path d="" fill="#82C1E5" transform="translate(0,0)"/>
<path d="" fill="#77AED1" transform="translate(0,0)"/>
<path d="" fill="#7AB8DE" transform="translate(0,0)"/>
<path d="" fill="#7EB8E2" transform="translate(0,0)"/>
<path d="" fill="#75AED0" transform="translate(0,0)"/>
<path d="" fill="#294569" transform="translate(0,0)"/>
<path d="" fill="#4D5C6E" transform="translate(0,0)"/>
<path d="" fill="#5D758F" transform="translate(0,0)"/>
<path d="" fill="#4C5C6D" transform="translate(0,0)"/>
<path d="" fill="#4E5C6D" transform="translate(0,0)"/>
<path d="" fill="#29476A" transform="translate(0,0)"/>
<path d="" fill="#83C1E5" transform="translate(0,0)"/>
<path d="" fill="#729EBD" transform="translate(0,0)"/>
<path d="" fill="#506274" transform="translate(0,0)"/>
<path d="" fill="#83C0E6" transform="translate(0,0)"/>
<path d="" fill="#60738B" transform="translate(0,0)"/>
<path d="" fill="#82C0E7" transform="translate(0,0)"/>
<path d="" fill="#78A9C8" transform="translate(0,0)"/>
<path d="" fill="#264361" transform="translate(0,0)"/>
<path d="" fill="#77A9C8" transform="translate(0,0)"/>
<path d="" fill="#78A9C9" transform="translate(0,0)"/>
<path d="" fill="#254361" transform="translate(0,0)"/>
<path d="" fill="#52677A" transform="translate(0,0)"/>
<path d="" fill="#7BAFCD" transform="translate(0,0)"/>
<path d="" fill="#2A4663" transform="translate(0,0)"/>
<path d="" fill="#294B70" transform="translate(0,0)"/>
<path d="" fill="#5D758C" transform="translate(0,0)"/>
<path d="" fill="#5B788B" transform="translate(0,0)"/>
<path d="" fill="#7CAFD0" transform="translate(0,0)"/>
<path d="" fill="#607386" transform="translate(0,0)"/>
<path d="" fill="#61798E" transform="translate(0,0)"/>
<path d="" fill="#7FB5D9" transform="translate(0,0)"/>
<path d="" fill="#2E4E72" transform="translate(0,0)"/>
<path d="" fill="#7DB0D3" transform="translate(0,0)"/>
<path d="" fill="#264060" transform="translate(0,0)"/>
<path d="" fill="#7EB8D9" transform="translate(0,0)"/>
<path d="" fill="#7EB4D8" transform="translate(0,0)"/>
<path d="" fill="#7DADCE" transform="translate(0,0)"/>
<path d="" fill="#6C90AA" transform="translate(0,0)"/>
<path d="" fill="#6F94AC" transform="translate(0,0)"/>
<path d="" fill="#6E90AF" transform="translate(0,0)"/>
<path d="" fill="#7495B3" transform="translate(0,0)"/>
<path d="" fill="#79AECF" transform="translate(0,0)"/>
<path d="" fill="#7DB4D9" transform="translate(0,0)"/>
<path d="" fill="#74A1C0" transform="translate(0,0)"/>
<path d="" fill="#749ABC" transform="translate(0,0)"/>
<path d="" fill="#7BB3D3" transform="translate(0,0)"/>
<path d="" fill="#7EB7DD" transform="translate(0,0)"/>
<path d="" fill="#7FB4DA" transform="translate(0,0)"/>
<path d="" fill="#7EB5DB" transform="translate(0,0)"/>
<path d="" fill="#7FB6DA" transform="translate(0,0)"/>
<path d="" fill="#2E5178" transform="translate(0,0)"/>
<path d="" fill="#7DB7D9" transform="translate(0,0)"/>
<path d="" fill="#7FB5DC" transform="translate(0,0)"/>
<path d="" fill="#82BBDE" transform="translate(0,0)"/>
<path d="" fill="#7DB6DC" transform="translate(0,0)"/>
<path d="" fill="#7EB7DA" transform="translate(0,0)"/>
<path d="" fill="#85BFE5" transform="translate(0,0)"/>
<path d="" fill="#7DB7DD" transform="translate(0,0)"/>
<path d="" fill="#79B4DA" transform="translate(0,0)"/>
<path d="" fill="#2F537A" transform="translate(0,0)"/>
<path d="" fill="#77B2D8" transform="translate(0,0)"/>
<path d="" fill="#274463" transform="translate(0,0)"/>
<path d="" fill="#264161" transform="translate(0,0)"/>
<path d="" fill="#7CB7DA" transform="translate(0,0)"/>
<path d="" fill="#7FB7DC" transform="translate(0,0)"/>
<path d="" fill="#264264" transform="translate(0,0)"/>
<path d="" fill="#2D5680" transform="translate(0,0)"/>
<path d="" fill="#2E5884" transform="translate(0,0)"/>
<path d="" fill="#7CB7DA" transform="translate(0,0)"/>
<path d="" fill="#274768" transform="translate(0,0)"/>
<path d="" fill="#2E5984" transform="translate(0,0)"/>
<path d="" fill="#72A9CE" transform="translate(0,0)"/>
<path d="" fill="#42719F" transform="translate(0,0)"/>
<path d="" fill="#345D89" transform="translate(0,0)"/>
<path d="" fill="#33608F" transform="translate(0,0)"/>
<path d="" fill="#335E8C" transform="translate(0,0)"/>
<path d="" fill="#345F8D" transform="translate(0,0)"/>
<path d="" fill="#325C87" transform="translate(0,0)"/>
<path d="" fill="#3A6795" transform="translate(0,0)"/>
<path d="" fill="#335D8C" transform="translate(0,0)"/>
<path d="" fill="#376591" transform="translate(0,0)"/>
<path d="" fill="#3B6795" transform="translate(0,0)"/>
<path d="" fill="#386393" transform="translate(0,0)"/>
<path d="" fill="#74ADD4" transform="translate(0,0)"/>
<path d="" fill="#80B9DE" transform="translate(0,0)"/>
<path d="" fill="#4B7FAB" transform="translate(0,0)"/>
<path d="" fill="#2D5582" transform="translate(0,0)"/>
<path d="" fill="#2E5680" transform="translate(0,0)"/>
<path d="" fill="#2C5581" transform="translate(0,0)"/>
<path d="" fill="#4D7FAE" transform="translate(0,0)"/>
<path d="" fill="#2E5986" transform="translate(0,0)"/>
<path d="" fill="#2B5583" transform="translate(0,0)"/>
<path d="" fill="#7DB6D8" transform="translate(0,0)"/>
<path d="" fill="#2D5682" transform="translate(0,0)"/>
<path d="" fill="#4E83B2" transform="translate(0,0)"/>
<path d="" fill="#274B6E" transform="translate(0,0)"/>
<path d="" fill="#7FB7DA" transform="translate(0,0)"/>
<path d="" fill="#4779A9" transform="translate(0,0)"/>
<path d="" fill="#7EB5D8" transform="translate(0,0)"/>
<path d="" fill="#4A7BAB" transform="translate(0,0)"/>
<path d="" fill="#81B8DB" transform="translate(0,0)"/>
<path d="" fill="#7DB6DA" transform="translate(0,0)"/>
<path d="" fill="#2A4C6F" transform="translate(0,0)"/>
<path d="" fill="#80B8DA" transform="translate(0,0)"/>
<path d="" fill="#7DB6D8" transform="translate(0,0)"/>
<path d="" fill="#7FB9DE" transform="translate(0,0)"/>
<path d="" fill="#2E5583" transform="translate(0,0)"/>
<path d="" fill="#274A6D" transform="translate(0,0)"/>
<path d="" fill="#5386B1" transform="translate(0,0)"/>
<path d="" fill="#2B537B" transform="translate(0,0)"/>
<path d="" fill="#2A4B70" transform="translate(0,0)"/>
<path d="" fill="#2E5681" transform="translate(0,0)"/>
<path d="" fill="#7FB7D8" transform="translate(0,0)"/>
<path d="" fill="#4C7FAF" transform="translate(0,0)"/>
<path d="" fill="#7DB7D9" transform="translate(0,0)"/>
<path d="" fill="#2B4F73" transform="translate(0,0)"/>
<path d="" fill="#7BB7DA" transform="translate(0,0)"/>
<path d="" fill="#2D5680" transform="translate(0,0)"/>
<path d="" fill="#7BB3D7" transform="translate(0,0)"/>
<path d="" fill="#2D557F" transform="translate(0,0)"/>
<path d="" fill="#7BB0D5" transform="translate(0,0)"/>
<path d="" fill="#7CB2D6" transform="translate(0,0)"/>
<path d="" fill="#79B1D4" transform="translate(0,0)"/>
<path d="" fill="#7CB3D6" transform="translate(0,0)"/>
<path d="" fill="#72A7C9" transform="translate(0,0)"/>
<path d="" fill="#5786AE" transform="translate(0,0)"/>
<path d="" fill="#2F5881" transform="translate(0,0)"/>
<path d="" fill="#2E5882" transform="translate(0,0)"/>
<path d="" fill="#376593" transform="translate(0,0)"/>
<path d="" fill="#2E5C86" transform="translate(0,0)"/>
<path d="" fill="#346291" transform="translate(0,0)"/>
<path d="" fill="#325D8C" transform="translate(0,0)"/>
<path d="" fill="#305E8B" transform="translate(0,0)"/>
</svg>
