<?xml version="1.0" encoding="UTF-8"?>
<svg version="1.1" xmlns="http://www.w3.org/2000/svg" width="1024" height="1024">
<path d="M0 0 C0.89402527 0.00343414 1.78805054 0.00686829 2.70916748 0.01040649 C16.45083865 0.07205235 30.05530293 0.37644445 43.6875 2.25 C44.86393066 2.41129395 46.04036133 2.57258789 47.25244141 2.73876953 C82.36988624 7.70859636 116.74133554 16.56552354 148.6875 32.25 C149.41630371 32.60336426 150.14510742 32.95672852 150.89599609 33.32080078 C173.66970036 44.38348116 194.91827355 57.40753771 214.6875 73.25 C215.70070313 74.05050781 216.71390625 74.85101563 217.7578125 75.67578125 C233.5283184 88.32363712 249.12038581 102.64614243 261.59375 118.59765625 C263.54736038 121.07247239 265.58653272 123.45077836 267.66040039 125.82495117 C273.87842584 132.97627593 279.27341399 140.57613249 284.50341797 148.47216797 C285.28823333 149.65052374 286.08407498 150.82161496 286.89111328 151.98486328 C289.6875 156.03772214 289.6875 156.03772214 289.6875 158.25 C290.31615967 157.94819824 290.94481934 157.64639648 291.5925293 157.33544922 C296.63625517 154.91530965 301.68298593 152.50176417 306.734375 150.09765625 C310.11397989 148.48784132 313.48302051 146.86386547 316.828125 145.18359375 C327.21963458 140.07402447 327.21963458 140.07402447 333.6875 141.25 C336.1875 142.75 336.1875 142.75 337.6875 145.25 C338.32840978 151.90121928 336.94620723 155.72170942 333.5625 161.375 C333.1281665 162.12982666 332.69383301 162.88465332 332.24633789 163.66235352 C327.80867908 171.27207951 323.0467959 178.69120186 318.24755859 186.07666016 C317.3805835 187.41349854 317.3805835 187.41349854 316.49609375 188.77734375 C315.97845459 189.56874756 315.46081543 190.36015137 314.92749023 191.17553711 C313.54446603 193.32025755 313.54446603 193.32025755 312.6875 196.25 C313.36681291 198.6546193 313.36681291 198.6546193 314.53125 201.2734375 C314.94979248 202.28317627 315.36833496 203.29291504 315.79956055 204.33325195 C316.25758057 205.41952881 316.71560059 206.50580566 317.1875 207.625 C327.61103271 233.09119248 334.97096651 259.05587048 339.625 286.1875 C339.83656738 287.40042725 340.04813477 288.61335449 340.26611328 289.86303711 C343.81636858 311.76433541 343.81636858 311.76433541 339.1328125 319.54296875 C328.46781064 332.13920067 306.20009946 334.77318579 290.6875 336.25 C287.71834303 336.39920119 284.75383227 336.4363595 281.78125 336.453125 C280.94697479 336.46013931 280.11269958 336.46715363 279.25314331 336.47438049 C276.56454034 336.49183166 273.87615758 336.49823536 271.1875 336.5 C270.27043274 336.50067474 269.35336548 336.50134949 268.4085083 336.50204468 C222.00205013 336.44778532 222.00205013 336.44778532 204.6875 324.25 C203.6975 323.59 202.7075 322.93 201.6875 322.25 C200.41519531 323.37535156 200.41519531 323.37535156 199.1171875 324.5234375 C181.87271272 339.6347032 164.94264798 353.64145715 140.92578125 352.46777344 C129.44970147 351.35120896 118.60372571 343.04553343 111.375 334.5 C102.22528383 322.28785316 98.37543724 310.42282838 99.6875 295.25 C104.88824499 270.29959049 132.33513127 254.52241789 152.0625 241.5625 C153.58890628 240.55328563 155.11494985 239.54352244 156.640625 238.53320312 C160.31878756 236.09915421 164.00170279 233.67247082 167.6875 231.25 C166.02101288 226.7926546 163.71341173 223.37573444 160.75 219.6875 C160.26200928 219.07471191 159.77401855 218.46192383 159.27124023 217.83056641 C154.34458496 211.71237373 149.11758354 205.92204581 143.6875 200.25 C143.21199707 199.74726563 142.73649414 199.24453125 142.24658203 198.7265625 C134.96494148 191.05809239 127.2940681 184.39048858 118.6875 178.25 C118.12756348 177.84571777 117.56762695 177.44143555 116.99072266 177.02490234 C77.84160138 149.00412703 24.68749722 134.76773298 -23.25170898 142.37719727 C-27.64431128 143.19135199 -31.98106563 144.15758066 -36.3125 145.25 C-37.16489258 145.46430664 -38.01728516 145.67861328 -38.89550781 145.89941406 C-54.91085972 150.06231484 -70.45396041 156.11123015 -84.3125 165.25 C-85.23933594 165.83136719 -86.16617188 166.41273438 -87.12109375 167.01171875 C-123.39378157 190.26586061 -147.21141437 226.92781385 -156.86230469 268.62548828 C-158.39046589 275.79524254 -159.31002771 282.98569889 -160.01928711 290.27685547 C-161.21389153 302.43527378 -163.31476073 312.30931854 -172.87890625 320.609375 C-187.8338181 331.44917688 -212.49766379 332.76214506 -230.3125 333.25 C-231.07788086 333.27191406 -231.84326172 333.29382813 -232.63183594 333.31640625 C-280.91735164 334.48413335 -280.91735164 334.48413335 -296.92578125 320.87890625 C-302.57025699 314.73491938 -303.8503723 307.29608074 -303.75 299.3125 C-303.74242676 298.42771973 -303.73485352 297.54293945 -303.72705078 296.63134766 C-302.74475932 254.03431448 -291.08347144 212.16707432 -274.3125 173.25 C-273.96864258 172.45174805 -273.62478516 171.65349609 -273.27050781 170.83105469 C-263.39149039 148.23218796 -249.98676783 127.24847497 -234.3125 108.25 C-233.82974609 107.66283203 -233.34699219 107.07566406 -232.84960938 106.47070312 C-220.72224151 91.83203235 -207.42771483 77.82040819 -192.3125 66.25 C-190.89580839 65.13058364 -189.48057262 64.00932357 -188.06640625 62.88671875 C-135.05282758 20.95210602 -67.40092674 -0.42835211 0 0 Z " fill="#FEC112" transform="translate(496.3125,116.75)"/>
<path d="M0 0 C0.79921875 -0.01224609 1.5984375 -0.02449219 2.421875 -0.03710938 C10.68733767 -0.05717118 18.03084266 0.84937263 24.625 6.1875 C28.93785942 11.09523658 28.77809686 15.83156184 28.78613281 22.10009766 C28.79102691 23.01855406 28.795921 23.93701046 28.8009634 24.88329887 C28.81549013 27.95605879 28.82221981 31.02877461 28.828125 34.1015625 C28.83495689 36.27632672 28.84186039 38.45109071 28.84883118 40.62585449 C28.86809991 47.68807027 28.87225142 54.75026161 28.875 61.8125 C28.876031 63.00718651 28.877062 64.20187302 28.87812424 65.43276215 C28.90416636 97.419433 28.63156809 129.35564218 27.1875 161.3125 C27.15372757 162.06233406 27.11995514 162.81216812 27.0851593 163.58472443 C26.6519907 173.12205648 26.15870138 182.65523092 25.625 192.1875 C25.55188599 193.54917297 25.55188599 193.54917297 25.47729492 194.93835449 C24.26207025 217.5644161 24.26207025 217.5644161 16.51953125 225.53515625 C4.67572576 235.86490825 -11.638718 234.72613866 -26.375 234.1875 C-36.43769321 233.48114294 -44.27519743 229.7179614 -51.3125 222.4375 C-56.5712002 216.13978242 -60.61068617 208.95641846 -64.76586914 201.90722656 C-66.71136081 198.61898848 -68.67974357 195.34468263 -70.6484375 192.0703125 C-73.75448794 186.90015375 -76.844912 181.72108734 -79.91796875 176.53125 C-80.29464188 175.89514297 -80.671315 175.25903595 -81.05940247 174.60365295 C-81.83114767 173.30022448 -82.60287089 171.99678299 -83.37457275 170.69332886 C-90.61477243 158.46816819 -97.92416182 146.29008355 -105.3359375 134.16796875 C-108.49425797 129.00170287 -111.61368209 123.81270621 -114.71337891 118.61108398 C-116.21584227 116.09425402 -117.7483674 113.6274489 -119.375 111.1875 C-119.37719984 112.03730029 -119.37719984 112.03730029 -119.37944412 112.90426826 C-119.41652583 126.70113941 -119.47581039 140.49776211 -119.55890274 154.2944355 C-119.59841651 160.96649557 -119.630586 167.63838422 -119.64599609 174.31054688 C-119.66113671 180.74921824 -119.69553695 187.18752472 -119.74330902 193.62603378 C-119.75814946 196.08278101 -119.76604253 198.53958032 -119.76688385 200.99637222 C-119.76924712 204.43694236 -119.79627742 207.87649889 -119.82910156 211.31689453 C-119.82155602 212.84143501 -119.82155602 212.84143501 -119.81385803 214.39677429 C-119.89890173 220.15619948 -120.42169074 223.67723775 -124.375 228.1875 C-136.10440872 236.80502477 -154.82614343 235.52357534 -168.625 233.5 C-175.25800425 232.02947547 -180.62975482 228.9114255 -184.375 223.1875 C-186.82181277 214.71704243 -186.60400344 205.86433624 -186.43432617 197.13354492 C-186.4156166 195.76651216 -186.39785868 194.39946609 -186.38096619 193.03240967 C-186.3327025 189.34654062 -186.27109707 185.66100614 -186.20686126 181.97538543 C-186.14096691 178.06600196 -186.08727059 174.15644873 -186.03205872 170.24690247 C-185.93729986 163.65576961 -185.83462526 157.06480055 -185.72631836 150.47387695 C-185.57597525 141.32385176 -185.44013095 132.1736553 -185.30720687 123.02336287 C-185.04987795 105.36675112 -184.76019365 87.71081897 -184.44390106 70.05516815 C-184.37995306 66.46553343 -184.31798294 62.87586991 -184.25640869 59.28619385 C-184.17343967 54.523034 -184.08090639 49.76018857 -183.97741127 44.9974308 C-183.94371348 43.40055613 -183.91288992 41.80361748 -183.88533592 40.20662498 C-183.57171025 22.44734115 -183.57171025 22.44734115 -180.03515625 17.19921875 C-169.85522107 8.76157076 -155.66518873 8.98826563 -143.0625 8.875 C-141.99837891 8.84599609 -140.93425781 8.81699219 -139.83789062 8.78710938 C-127.24642271 8.68723806 -117.11701461 13.10324291 -107.8125 21.5 C-107.008125 22.386875 -106.20375 23.27375 -105.375 24.1875 C-104.85164063 24.73019531 -104.32828125 25.27289063 -103.7890625 25.83203125 C-96.18892217 33.96129528 -89.87185807 43.17756751 -83.375 52.1875 C-82.88547852 52.86248535 -82.39595703 53.5374707 -81.89160156 54.23291016 C-46.19805334 103.54139333 -46.19805334 103.54139333 -36.375 123.1875 C-36.17140343 117.93654152 -35.96821232 112.68556783 -35.765625 107.43457031 C-35.58721827 102.81147266 -35.40731019 98.18843636 -35.2265625 93.56542969 C-34.73929177 81.04199724 -34.27969273 68.51831529 -33.8671875 55.9921875 C-33.74323169 52.32723031 -33.61855369 48.66229848 -33.49359131 44.99737549 C-33.41485371 42.63382909 -33.33918516 40.27017836 -33.2666626 37.90643311 C-33.16463758 34.58835862 -33.05210006 31.27078555 -32.9375 27.953125 C-32.89687943 26.49070877 -32.89687943 26.49070877 -32.85543823 24.99874878 C-32.61208398 18.35664802 -32.3604917 11.89498868 -28.3125 6.375 C-20.13185245 0.28302842 -9.85532929 0.00787167 0 0 Z " fill="#0270BD" transform="translate(374.375,472.8125)"/>
<path d="M0 0 C1.41357422 1.90161133 1.41357422 1.90161133 3.0546875 4.58203125 C3.66328613 5.5671167 4.27188477 6.55220215 4.89892578 7.56713867 C5.55103027 8.63810791 6.20313477 9.70907715 6.875 10.8125 C8.24434676 13.03412845 9.61414346 15.25547964 10.984375 17.4765625 C12.0062793 19.13993652 12.0062793 19.13993652 13.04882812 20.83691406 C15.70524842 25.14329311 18.41145013 29.41698776 21.125 33.6875 C25.29232338 40.2658277 29.40884314 46.87405855 33.5 53.5 C39.11152625 62.58735348 44.79436093 71.62738215 50.51171875 80.6484375 C52.0217001 83.03428729 53.52714356 85.42294272 55.03125 87.8125 C55.78390137 89.00721924 55.78390137 89.00721924 56.55175781 90.22607422 C57.54950288 91.81040567 58.54626714 93.39535526 59.54199219 94.98095703 C62.05872054 98.97620075 64.61218725 102.9402168 67.234375 106.8671875 C67.7512085 107.64626465 68.26804199 108.4253418 68.80053711 109.22802734 C69.7873172 110.71082656 70.78257335 112.18802989 71.78735352 113.65869141 C72.93637259 115.38973064 73.97898769 117.19050407 75 119 C73.66074268 123.01777196 71.79079648 123.66308887 68.25 125.9375 C60.77375982 130.89872047 54.43427235 136.77639959 48 143 C47.33355469 143.61488281 46.66710937 144.22976563 45.98046875 144.86328125 C18.9522429 170.37235623 4.81855752 208.78646224 1.29321289 245.02685547 C0.09860847 257.18527378 -2.00226073 267.05931854 -11.56640625 275.359375 C-26.5213181 286.19917688 -51.18516379 287.51214506 -69 288 C-69.76538086 288.02191406 -70.53076172 288.04382813 -71.31933594 288.06640625 C-119.60485164 289.23413335 -119.60485164 289.23413335 -135.61328125 275.62890625 C-141.25775699 269.48491938 -142.5378723 262.04608074 -142.4375 254.0625 C-142.42992676 253.17771973 -142.42235352 252.29293945 -142.41455078 251.38134766 C-141.43225932 208.78431448 -129.77097144 166.91707432 -113 128 C-112.65614258 127.20174805 -112.31228516 126.40349609 -111.95800781 125.58105469 C-102.07899039 102.98218796 -88.67426783 81.99847497 -73 63 C-72.51724609 62.41283203 -72.03449219 61.82566406 -71.53710938 61.22070312 C-59.40895494 46.58108289 -46.11371898 32.57392691 -31 21 C-29.57154829 19.86891348 -28.14459846 18.73592892 -26.71875 17.6015625 C-4.49497724 0 -4.49497724 0 0 0 Z " fill="#FE232F" transform="translate(335,162)"/>
<path d="M0 0 C7.01469319 6.6185994 8.99735891 13.07067287 9.83203125 22.5859375 C9.64778235 33.27237358 4.91988106 43.59234566 -2.5390625 51.09375 C-7.30926972 55.41757086 -10.55087078 57.41099008 -17.24169922 57.31787109 C-21.40222637 56.77069599 -24.86574867 54.76408778 -28.54296875 52.8359375 C-46.45157139 43.9303955 -69.65084527 35.16598395 -89.79296875 41.3359375 C-92.66138066 42.40102562 -94.53974686 43.63530368 -96.48046875 46.0234375 C-97.23092381 49.43800084 -97.23092381 49.43800084 -96.48046875 53.0234375 C-86.73212851 64.08912101 -67.66689999 66.72239567 -54.11376953 70.63769531 C-32.62738361 76.86941769 -10.612573 84.00135344 6.51953125 99.0234375 C6.51953125 99.6834375 6.51953125 100.3434375 6.51953125 101.0234375 C7.17953125 101.0234375 7.83953125 101.0234375 8.51953125 101.0234375 C15.18564843 108.88636722 19.21360072 116.92126566 21.51953125 127.0234375 C21.70902344 127.77753906 21.89851562 128.53164063 22.09375 129.30859375 C24.79890128 146.55703541 21.83060683 163.77553665 11.9609375 178.3203125 C-3.57854268 199.13532059 -26.12341069 209.42070354 -51.40795898 213.14990234 C-88.12447348 217.89303675 -125.09602162 209.27813975 -157.73046875 192.4609375 C-158.57577148 192.02628174 -159.42107422 191.59162598 -160.29199219 191.14379883 C-170.05924319 185.923003 -179.10580762 179.2511385 -184.91796875 169.6484375 C-187.40241993 158.05433201 -183.13179693 149.0307726 -177.03515625 139.33984375 C-172.27833182 132.25241438 -166.36790048 125.52624924 -157.63427734 123.62060547 C-150.38669962 122.95414234 -144.72367289 126.56082013 -138.60806274 129.9781189 C-135.41310517 131.75685732 -132.18019427 133.4632084 -128.9453125 135.16796875 C-128.30442184 135.50633255 -127.66353119 135.84469635 -127.0032196 136.1933136 C-109.80240402 145.1871996 -86.77019889 154.57986933 -67.01171875 150.515625 C-63.78875339 149.49969027 -61.700787 148.26378468 -59.41796875 145.7734375 C-58.14152958 142.02921593 -58.39552537 139.82073932 -59.48046875 136.0234375 C-66.31814427 126.12059709 -83.18052173 123.99812133 -94.23046875 121.0859375 C-122.02641282 113.75690597 -152.23104566 104.05197378 -168.35546875 78.2734375 C-176.18933094 63.66133994 -178.3647125 46.58906034 -174.03979492 30.46289062 C-168.33872956 12.10845953 -156.5036762 -1.98334612 -139.59179688 -10.98144531 C-99.57440048 -31.030443 -35.76249222 -28.497356 0 0 Z " fill="#0271BD" transform="translate(820.48046875,498.9765625)"/>
<path d="M0 0 C1.010625 0.763125 2.02125 1.52625 3.0625 2.3125 C3.701875 2.869375 4.34125 3.42625 5 4 C5 4.66 5 5.32 5 6 C5.99 6.33 6.98 6.66 8 7 C23.55491159 23.94158975 28.55363306 45.48148784 28 68 C26.44292843 92.2205969 15.99352056 114.6460637 -2 131 C-14.5768602 141.84200049 -28.85907966 149.02911299 -45 153 C-46.19367188 153.2990625 -47.38734375 153.598125 -48.6171875 153.90625 C-64.40650603 157.3624148 -80.93853042 156.26967337 -97 156 C-96.9592334 157.20011719 -96.9184668 158.40023437 -96.87646484 159.63671875 C-96.72727174 164.11671132 -96.59291608 168.59705026 -96.46289062 173.07763672 C-96.40472389 175.01168068 -96.3426084 176.94561028 -96.27636719 178.87939453 C-96.18149891 181.66938432 -96.10114288 184.45948566 -96.0234375 187.25 C-95.99124115 188.10553467 -95.9590448 188.96106934 -95.9258728 189.8425293 C-95.78071014 195.74527925 -95.86933898 201.99582698 -99.41015625 206.98828125 C-111.2472269 216.47472794 -127.8474468 216.22418164 -142.32666016 214.765625 C-151.10258608 213.5942171 -159.66864957 212.29568872 -165.375 204.9375 C-167.77453633 200.59987664 -168.12602827 197.57289516 -168.12939453 192.67822266 C-168.13111853 192.03130746 -168.13284252 191.38439226 -168.13461876 190.71787357 C-168.13900137 188.53324508 -168.13598489 186.34869224 -168.1328125 184.1640625 C-168.13391706 182.58274816 -168.1353504 181.00143402 -168.13708496 179.42012024 C-168.14003818 175.06999717 -168.13559507 170.71991098 -168.12897491 166.36979294 C-168.12500324 163.62723541 -168.12248397 160.88467985 -168.12030029 158.14212036 C-168.09158661 126.51683283 -167.9264645 94.89181974 -167.68060303 63.26751709 C-167.64273689 58.38834411 -167.6089722 53.50916956 -167.57867432 48.62994385 C-167.54213723 42.82820789 -167.49579768 37.02662848 -167.44206238 31.22502708 C-167.42364496 29.08058374 -167.40840833 26.9361103 -167.3966217 24.79162025 C-167.22267501 -5.58683831 -167.22267501 -5.58683831 -159 -14 C-153.16954136 -18.62507238 -147.21955381 -20.27247749 -140 -21.625 C-138.94965576 -21.82955811 -137.89931152 -22.03411621 -136.81713867 -22.24487305 C-91.35259186 -30.83198043 -37.53738779 -31.37220352 0 0 Z M-103 34 C-103.10075027 35.53900793 -103.13082207 37.0826991 -103.1328125 38.625 C-103.13482666 39.62619873 -103.13684082 40.62739746 -103.13891602 41.65893555 C-103.13432373 42.76148682 -103.12973145 43.86403809 -103.125 45 C-103.12234131 46.13671143 -103.11968262 47.27342285 -103.11694336 48.44458008 C-103.06523803 58.19594346 -102.84382285 67.94041082 -102.5625 77.6875 C-102.5429425 78.40091553 -102.52338501 79.11433105 -102.50323486 79.84936523 C-102.44561857 81.90365556 -102.38206695 83.95767139 -102.31640625 86.01171875 C-102.27974854 87.19209717 -102.24309082 88.37247559 -102.20532227 89.58862305 C-102.25546682 95.7271217 -102.25546682 95.7271217 -100 101 C-82.17310296 103.58777538 -63.1666941 102.55495027 -48.125 91.75 C-43.74231942 88.08982654 -40.72759173 83.99184255 -38 79 C-37.6596875 78.39800781 -37.319375 77.79601562 -36.96875 77.17578125 C-33.47972101 69.72928882 -33.64341357 60.31324915 -36.06640625 52.609375 C-39.13740799 45.94856469 -42.93883342 41.1257654 -49 37 C-49.58136719 36.60296875 -50.16273438 36.2059375 -50.76171875 35.796875 C-61.16437346 29.74934471 -93.03126322 24.03126322 -103 34 Z " fill="#0271BD" transform="translate(598,492)"/>
<path d="M0 0 C2.5 1.5 2.5 1.5 4 4 C4.64090978 10.65121928 3.25870723 14.47170942 -0.125 20.125 C-0.77650024 21.25723999 -0.77650024 21.25723999 -1.44116211 22.41235352 C-5.87882092 30.02207951 -10.6407041 37.44120186 -15.43994141 44.82666016 C-16.0179248 45.71788574 -16.5959082 46.60911133 -17.19140625 47.52734375 C-17.96786499 48.71444946 -17.96786499 48.71444946 -18.76000977 49.92553711 C-20.14303397 52.07025755 -20.14303397 52.07025755 -21 55 C-20.32068709 57.4046193 -20.32068709 57.4046193 -19.15625 60.0234375 C-18.73770752 61.03317627 -18.31916504 62.04291504 -17.88793945 63.08325195 C-17.42991943 64.16952881 -16.97189941 65.25580566 -16.5 66.375 C-6.07646729 91.84119248 1.28346651 117.80587048 5.9375 144.9375 C6.14906738 146.15042725 6.36063477 147.36335449 6.57861328 148.61303711 C10.12886858 170.51433541 10.12886858 170.51433541 5.4453125 178.29296875 C-5.21968936 190.88920067 -27.48740054 193.52318579 -43 195 C-45.96915697 195.14920119 -48.93366773 195.1863595 -51.90625 195.203125 C-52.74052521 195.21013931 -53.57480042 195.21715363 -54.43435669 195.22438049 C-57.12295966 195.24183166 -59.81134242 195.24823536 -62.5 195.25 C-63.41706726 195.25067474 -64.33413452 195.25134949 -65.2789917 195.25204468 C-111.68544987 195.19778532 -111.68544987 195.19778532 -129 183 C-130.485 182.01 -130.485 182.01 -132 181 C-132.84820313 181.75023437 -133.69640625 182.50046875 -134.5703125 183.2734375 C-151.81478728 198.3847032 -168.74485202 212.39145715 -192.76171875 211.21777344 C-204.23779853 210.10120896 -215.08377429 201.79553343 -222.3125 193.25 C-231.46221617 181.03785316 -235.31206276 169.17282838 -234 154 C-229.03360343 130.17386961 -203.52707646 114.70594977 -184.61376953 102.21020508 C-182.49631307 100.81006206 -180.38653387 99.39888483 -178.27734375 97.98632812 C-170.7039535 92.94066666 -163.04970825 88.1784404 -155.09277344 83.76049805 C-151.90249506 81.9444973 -148.82566994 80.0031234 -145.75 78 C-145.1319751 77.59861816 -144.5139502 77.19723633 -143.87719727 76.78369141 C-143.34151123 76.43483887 -142.8058252 76.08598633 -142.25390625 75.7265625 C-115.72894916 58.60905389 -88.39877128 42.66385254 -61 27 C-59.79512939 26.30753174 -59.79512939 26.30753174 -58.56591797 25.60107422 C-49.61453367 20.45726429 -40.56022015 15.62235383 -31.27197266 11.11376953 C-28.70574414 9.85574949 -26.15641323 8.56605774 -23.60546875 7.27734375 C-21.73741367 6.35068606 -19.86892791 5.42489606 -18 4.5 C-17.12770752 4.05406494 -16.25541504 3.60812988 -15.35668945 3.14868164 C-9.92726661 0.49727267 -6.05090152 -0.64257361 0 0 Z " fill="#0188D6" transform="translate(830,258)"/>
<path d="M0 0 C6.15195319 1.54052205 10.89024394 4.98440265 16.0625 8.5 C16.99626465 9.1293042 17.9300293 9.7586084 18.89208984 10.40698242 C26.15701921 15.34137875 33.16280624 20.48886445 40 26 C41.39025391 27.10214844 41.39025391 27.10214844 42.80859375 28.2265625 C58.66509589 40.9567472 74.35689556 55.29896258 86.90625 71.34765625 C88.85986038 73.82247239 90.89903272 76.20077836 92.97290039 78.57495117 C99.19092584 85.72627593 104.58591399 93.32613249 109.81591797 101.22216797 C110.60073333 102.40052374 111.39657498 103.57161496 112.20361328 104.73486328 C115 108.78772214 115 108.78772214 115 111 C115.66 111.33 116.32 111.66 117 112 C116.40058594 112.28230469 115.80117188 112.56460938 115.18359375 112.85546875 C89.64840331 125.24167066 64.8066635 140.30904264 40.90405273 155.60913086 C34.76180023 159.53998403 28.54883414 163.34538815 22.3125 167.125 C13.1594053 172.6736486 4.05656985 178.29528111 -5 184 C-7.16588764 181.31148518 -9.30328661 178.60626811 -11.41015625 175.87109375 C-17.57315638 167.8702509 -24.0169065 160.29425725 -31 153 C-31.47550293 152.49726563 -31.95100586 151.99453125 -32.44091797 151.4765625 C-43.0718125 140.28091279 -54.88691577 131.54905029 -67.78515625 123.12890625 C-70.26239131 121.4884529 -72.6539776 119.81948371 -75 118 C-74.36835937 117.02804687 -73.73671875 116.05609375 -73.0859375 115.0546875 C-67.72402849 106.79172281 -62.40340429 98.50407268 -57.125 90.1875 C-52.58424932 83.03420308 -48.0052524 75.90818436 -43.375 68.8125 C-38.68949437 61.63177557 -34.08214877 54.40640225 -29.52124023 47.14599609 C-25.88569776 41.37045876 -22.17396865 35.64813947 -18.4375 29.9375 C-8.64139229 15.30772962 -8.64139229 15.30772962 0 0 Z " fill="#89CC4B" transform="translate(671,164)"/>
<path d="M0 0 C2.59564551 2.29217451 3.76534371 4.37247292 5.015625 7.5859375 C5.3760791 8.50528076 5.7365332 9.42462402 6.10791016 10.37182617 C6.67324463 11.85839722 6.67324463 11.85839722 7.25 13.375 C7.64622559 14.40794189 8.04245117 15.44088379 8.45068359 16.50512695 C17.66152607 40.75169678 24.55001689 65.35977985 28.9375 90.9375 C29.14906738 92.15042725 29.36063477 93.36335449 29.57861328 94.61303711 C33.12886858 116.51433541 33.12886858 116.51433541 28.4453125 124.29296875 C17.78031064 136.88920067 -4.48740054 139.52318579 -20 141 C-22.96915697 141.14920119 -25.93366773 141.1863595 -28.90625 141.203125 C-29.74052521 141.21013931 -30.57480042 141.21715363 -31.43435669 141.22438049 C-34.12295966 141.24183166 -36.81134242 141.24823536 -39.5 141.25 C-40.41706726 141.25067474 -41.33413452 141.25134949 -42.2789917 141.25204468 C-90.08801964 141.19614541 -90.08801964 141.19614541 -106 129 C-107.17041016 126.86938477 -107.17041016 126.86938477 -108 125 C-107.56453354 124.56675415 -107.12906708 124.1335083 -106.68040466 123.68713379 C-102.11840131 119.14738049 -97.56002233 114.60401065 -93.00366211 110.05859375 C-91.30633333 108.36627089 -89.60810523 106.6748495 -87.90893555 104.984375 C-85.45640659 102.54407631 -83.00720904 100.10047494 -80.55859375 97.65625 C-79.80726669 96.91008423 -79.05593964 96.16391846 -78.28184509 95.3951416 C-74.19174013 91.30546558 -70.26909606 87.12965557 -66.50120544 82.74055481 C-64.27512777 80.15955551 -61.94810552 77.68152469 -59.625 75.1875 C-55.37514703 70.58821468 -51.36423497 65.8491206 -47.4375 60.96875 C-44.57072967 57.47717075 -41.60200757 54.08495945 -38.625 50.6875 C-32.48717567 43.65226011 -26.66348152 36.42084106 -21 29 C-20.50612793 28.35385742 -20.01225586 27.70771484 -19.50341797 27.04199219 C-12.75657387 18.19037255 -6.24657979 9.21212777 0 0 Z " fill="#89CC4A" transform="translate(807,312)"/>
<path d="M0 0 C1.69576172 -0.03867187 1.69576172 -0.03867187 3.42578125 -0.078125 C7.15087608 0.29661508 8.68542896 1.04718728 11.6875 3.25 C13.61279297 5.98632812 13.61279297 5.98632812 15.4296875 9.28125 C15.76114777 9.87240601 16.09260803 10.46356201 16.43411255 11.07263184 C17.48888912 12.95871405 18.52632324 14.85364663 19.5625 16.75 C20.92980632 19.22159474 22.30399248 21.68931652 23.6796875 24.15625 C24.01256775 24.7558252 24.345448 25.35540039 24.68841553 25.97314453 C27.80077556 31.54077499 31.18598751 36.91880655 34.6875 42.25 C35.16058594 41.46463867 35.63367188 40.67927734 36.12109375 39.87011719 C37.91558881 36.89415876 39.71260724 33.9197529 41.51123047 30.94628906 C42.28206787 29.67083954 43.05195967 28.39481794 43.82080078 27.11816406 C58.20518092 3.23821272 58.20518092 3.23821272 62.6875 0.25 C65.24609375 -0.05078125 65.24609375 -0.05078125 68.125 -0.0625 C69.54619141 -0.08763672 69.54619141 -0.08763672 70.99609375 -0.11328125 C74.11536993 0.30775312 75.44669671 1.07044874 77.6875 3.25 C78.67369977 6.20859931 78.94890693 8.54708019 79.16821289 11.64501953 C79.24822037 12.75112579 79.32822784 13.85723206 79.41065979 14.99685669 C79.49299362 16.19672211 79.57532745 17.39658752 79.66015625 18.6328125 C79.74752548 19.87561981 79.83489471 21.11842712 79.9249115 22.39889526 C80.1092668 25.04006459 80.29191132 27.68129115 80.47192383 30.32275391 C80.74413902 34.31084443 81.02958194 38.29794959 81.31445312 42.28515625 C81.82824273 49.60385856 82.28683183 56.92423838 82.6875 64.25 C82.74137878 65.21079468 82.79525757 66.17158936 82.85076904 67.16149902 C82.97284551 69.5845574 83.05763095 72.00448633 83.12109375 74.4296875 C83.1818811 76.33983643 83.1818811 76.33983643 83.24389648 78.28857422 C82.6875 81.25 82.6875 81.25 80.28930664 83.15356445 C75.67682166 85.09732631 71.553673 84.8179657 66.8125 83.375 C64.6875 82.25 64.6875 82.25 62.6875 80.25 C61.38160233 75.69956913 61.37167917 70.93291375 61.15234375 66.23046875 C61.08787804 64.94261223 61.08787804 64.94261223 61.02210999 63.6287384 C60.8862444 60.89848495 60.75555104 58.16801222 60.625 55.4375 C60.53354476 53.58136334 60.44175167 51.7252433 60.34960938 49.86914062 C60.12499187 45.32961023 59.90501133 40.78987621 59.6875 36.25 C59.2843457 37.01143311 58.88119141 37.77286621 58.46582031 38.55737305 C56.95663146 41.40173027 55.44277211 44.24353747 53.92578125 47.08374023 C53.27222749 48.3096379 52.62050281 49.53651262 51.97070312 50.7644043 C51.03225385 52.53695075 50.08650244 54.305625 49.140625 56.07421875 C48.29226074 57.66882935 48.29226074 57.66882935 47.42675781 59.2956543 C43.18463081 66.50143459 43.18463081 66.50143459 39.6875 68.25 C37.48046875 68.453125 37.48046875 68.453125 34.875 68.5 C34.02292969 68.52578125 33.17085937 68.5515625 32.29296875 68.578125 C28.99055509 68.16222883 27.38138918 67.21916192 24.6875 65.25 C22.74291992 62.33911133 22.74291992 62.33911133 20.91796875 58.83203125 C20.59210281 58.21478683 20.26623688 57.59754242 19.93049622 56.96159363 C18.89936046 55.00154392 17.88705527 53.03245776 16.875 51.0625 C16.17635423 49.72657271 15.47649675 48.39127835 14.77539062 47.05664062 C13.06534019 43.7949692 11.37203404 40.52493701 9.6875 37.25 C8.57191465 40.59675604 8.49648425 43.26272712 8.40625 46.7890625 C8.36886719 48.09230469 8.33148437 49.39554688 8.29296875 50.73828125 C8.25736119 52.11717592 8.22220811 53.4960824 8.1875 54.875 C7.60917783 77.49442318 7.60917783 77.49442318 5.375 81.75 C2.48204296 84.32151737 0.1200001 84.21796296 -3.6875 84.5 C-7.63780168 84.2275654 -9.8620868 83.09670002 -13.3125 81.25 C-13.50006808 66.18297837 -13.05418519 51.225007 -12.140625 36.18530273 C-11.93458179 32.76404434 -11.74417601 29.34213296 -11.5546875 25.91992188 C-11.4254052 23.71869542 -11.29523083 21.51752113 -11.1640625 19.31640625 C-11.10876373 18.3059877 -11.05346497 17.29556915 -10.99649048 16.25453186 C-10.66400288 10.98500299 -10.16630701 6.21558465 -8.3125 1.25 C-5.51142988 -0.15053506 -3.12358319 0.0424496 0 0 Z " fill="#4D4BD5" transform="translate(655.3125,735.75)"/>
<path d="M0 0 C3.48698608 2.33309228 6.4489769 4.64902645 9 8 C9.5625 11.5625 9.5625 11.5625 8 15 C5.63274026 17.87057899 3.19477886 20.08313268 0 22 C-4.91568151 22.41835587 -8.7462132 19.63386431 -12.8515625 17.15625 C-17.36143309 14.72911964 -21.97099908 14.55687082 -27 15 C-29.40557853 15.86265968 -29.40557853 15.86265968 -31 17 C-31.33397787 19.87413125 -31.33397787 19.87413125 -31 23 C-28.33568528 25.48832675 -25.86941505 26.52482915 -22.3671875 27.39453125 C-21.48297119 27.62454834 -20.59875488 27.85456543 -19.68774414 28.09155273 C-18.75953857 28.32946533 -17.83133301 28.56737793 -16.875 28.8125 C-6.01277891 31.77089102 3.5898661 35.1606686 10 45 C12.75850377 50.89316715 12.87623428 56.94038094 10.875 63.0625 C7.83342221 70.21090864 3.08223556 74.79135114 -3.9765625 77.9921875 C-17.45712827 82.48570942 -31.75143197 81.94252338 -44.5625 75.75 C-49.70140149 73.15975601 -52.69742722 70.61748601 -56 66 C-56.32414032 60.92180161 -53.81879903 58.08718756 -50.66796875 54.41796875 C-48.67781115 52.72610175 -47.61414288 52.16398682 -45 52 C-42.58984375 53.07421875 -42.58984375 53.07421875 -39.9375 54.6875 C-32.27061025 59.05691254 -24.91285503 63.1160557 -15.8828125 61.5625 C-13.46588091 60.84042915 -11.78067849 59.78067849 -10 58 C-9.69889182 55.11095637 -9.69889182 55.11095637 -11 52 C-15.20474838 49.23881731 -20.32467281 48.17649568 -25.12890625 46.85546875 C-36.57141803 43.69746766 -45.64471372 40.7245456 -52 30 C-53.95516911 23.92005476 -54.10504829 16.62570364 -51.5 10.75 C-47.63467308 4.154617 -41.40043292 -0.77199612 -34.23046875 -3.33984375 C-23.32245272 -5.56893046 -9.78313625 -5.8112806 0 0 Z " fill="#4D4CD5" transform="translate(258,740)"/>
<path d="M0 0 C1.11375 0.66 2.2275 1.32 3.375 2 C8.12274368 5.61732852 8.12274368 5.61732852 10 8 C10.38170111 11.03854171 10.26663647 12.55507998 8.6796875 15.203125 C8.08414063 15.87859375 7.48859375 16.5540625 6.875 17.25 C6.29492188 17.93578125 5.71484375 18.6215625 5.1171875 19.328125 C2.30247483 21.55081324 0.5866268 21.94279 -3 22 C-5.44227914 20.94921871 -7.54267925 19.89478609 -9.8125 18.5625 C-15.52068179 15.4581957 -19.4898349 14.05497603 -26 15 C-28.17872765 15.81037366 -28.17872765 15.81037366 -30 17 C-31.08024658 19.40110217 -31.08024658 19.40110217 -31 22 C-28.53721331 25.61022139 -24.54732594 26.25566165 -20.5625 27.375 C4.65503327 34.90206887 4.65503327 34.90206887 10.5 44.5625 C13.15637143 50.74093534 13.01764129 57.91595616 11.41015625 64.3671875 C8.68026828 70.83337376 3.00906239 74.99179077 -3.12890625 78.06640625 C-16.07856641 83.00301703 -31.24784078 81.60782357 -43.7734375 76.140625 C-48.34754946 73.79739572 -52.10545522 71.34181718 -55 67 C-55 61.44563705 -53.23867248 58.42478701 -49.86328125 54.28515625 C-47.09677677 52.37702213 -45.29850233 52.58056081 -42 53 C-39.03515625 54.4609375 -39.03515625 54.4609375 -36.0625 56.375 C-28.91226897 60.71966682 -23.60334251 62.58893949 -15.24609375 61.55859375 C-12.25650363 60.81509569 -10.76701642 59.48988677 -9 57 C-9.34939366 54.56469493 -9.34939366 54.56469493 -11 52 C-15.91307766 48.69679002 -21.77087637 47.51871411 -27.4375 46.125 C-37.7181514 43.55900065 -45.41398372 39.31811109 -51.1015625 30.2421875 C-53.34330876 24.64756856 -52.81646455 17.28652821 -51.3828125 11.515625 C-49.01116462 6.10071215 -44.99376754 2.96121654 -40 0 C-39.32710938 -0.41507813 -38.65421875 -0.83015625 -37.9609375 -1.2578125 C-27.19474291 -6.69797443 -10.30568248 -6.16651493 0 0 Z " fill="#4C4BD5" transform="translate(439,740)"/>
<path d="M0 0 C1.30940552 0.00749268 1.30940552 0.00749268 2.64526367 0.01513672 C12.36539839 0.27621286 20.87303659 3.16065619 27.9609375 10.0390625 C29.1875 11.5 29.1875 11.5 30.5 13.875 C29.97833657 18.25697277 27.12886825 21.32752424 24.1875 24.5 C21.1875 26.5 21.1875 26.5 18.5625 26.4375 C14.72445171 25.37137547 11.7306261 23.70497435 8.3359375 21.65625 C3.19613212 18.89010019 -2.63026433 18.76563792 -8.25 20.0625 C-10.79999255 22.40849314 -10.56682465 25.18338281 -10.8125 28.5 C-6.78267674 30.29103256 -2.66053636 31.3788656 1.58789062 32.50390625 C13.86804877 35.7912366 24.24533956 39.01782908 31.2890625 50.2578125 C33.53080876 55.85243144 33.00396455 63.21347179 31.5703125 68.984375 C28.49154719 76.01376836 22.22008715 79.82975679 15.4375 82.875 C3.48429519 86.84273047 -11.53771264 85.9778448 -22.8125 80.5 C-27.22639945 78.18343357 -31.84540068 75.57976157 -34.8125 71.5 C-35.5 68.75 -35.5 68.75 -34.8125 65.5 C-32.48286728 62.04046367 -29.93008426 58.30540598 -25.92724609 56.78295898 C-23.276955 56.42834257 -22.3275882 56.97453125 -20.0546875 58.3359375 C-19.35134277 58.74102539 -18.64799805 59.14611328 -17.92333984 59.56347656 C-17.1855127 59.9962793 -16.44768555 60.42908203 -15.6875 60.875 C-8.71181438 64.75416176 -2.82667827 67.8069485 5.30859375 66.0390625 C7.51130023 65.37101638 7.51130023 65.37101638 10.1875 63.5 C11.50651591 61.07589864 11.50651591 61.07589864 11.1875 58.5 C7.09183374 53.50530411 -0.09919205 52.36014399 -6.10473633 50.76367188 C-15.5078159 48.2382061 -24.38167087 45.1893266 -29.8125 36.5 C-32.73734728 30.3578207 -32.96717721 23.24330241 -30.97265625 16.77734375 C-27.93718605 10.0011931 -23.76234449 5.57377847 -16.88598633 2.69287109 C-11.20980239 0.59722174 -6.02777071 -0.04558082 0 0 Z " fill="#4C4BD5" transform="translate(793.8125,735.5)"/>
<path d="M0 0 C0.97103165 -0.00938095 1.94206329 -0.0187619 2.94252014 -0.02842712 C3.98427902 -0.01719315 5.0260379 -0.00595917 6.09936523 0.00561523 C7.17419662 0.00416 8.24902802 0.00270477 9.35643005 0.00120544 C11.62680779 0.00286441 13.89719678 0.01442527 16.16748047 0.03515625 C19.64851453 0.06413037 23.12802792 0.05576061 26.60913086 0.04272461 C28.81421641 0.04896133 31.01929714 0.05735174 33.22436523 0.06811523 C34.7900399 0.06371178 34.7900399 0.06371178 36.38734436 0.05921936 C37.35522385 0.07190353 38.32310333 0.08458771 39.3203125 0.09765625 C40.17206558 0.10305923 41.02381866 0.10846222 41.90138245 0.11402893 C44.59893063 0.59066938 45.45369949 1.34277374 47.09545898 3.50170898 C48.31014586 7.1457696 49.01680176 10.74758097 48.09545898 14.50170898 C45.38734666 17.91558926 43.95388061 19.36269455 39.59033203 20.06933594 C38.27589111 20.04315186 36.9614502 20.01696777 35.60717773 19.98999023 C34.90397903 19.9829155 34.20078033 19.97584076 33.47627258 19.96855164 C31.24405672 19.94070111 29.01440821 19.87799218 26.78295898 19.81420898 C25.26411517 19.78911349 23.74523178 19.7663025 22.22631836 19.74584961 C18.5152065 19.69090905 14.80558357 19.60470638 11.09545898 19.50170898 C11.42545898 23.79170898 11.75545898 28.08170898 12.09545898 32.50170898 C13.27881836 32.49010742 14.46217773 32.47850586 15.68139648 32.46655273 C29.97820439 32.36374151 29.97820439 32.36374151 36.09545898 32.75170898 C36.83795898 32.79811523 37.58045898 32.84452148 38.34545898 32.89233398 C40.09545898 33.50170898 40.09545898 33.50170898 41.32983398 35.26342773 C42.15175638 37.66629269 42.36261003 39.53014172 42.34545898 42.06420898 C42.35319336 43.21083008 42.35319336 43.21083008 42.36108398 44.38061523 C42.09545898 46.50170898 42.09545898 46.50170898 40.09545898 49.50170898 C30.72927013 51.24794758 20.41520084 51.36565736 11.09545898 49.50170898 C11.09545898 54.45170898 11.09545898 59.40170898 11.09545898 64.50170898 C14.72481445 64.44950195 14.72481445 64.44950195 18.42749023 64.39624023 C20.77065857 64.37284463 23.1138139 64.35462813 25.45703125 64.33691406 C27.08567121 64.32182655 28.71427055 64.30135392 30.34277344 64.27539062 C32.68361434 64.2390045 35.02391817 64.22198278 37.36499023 64.20874023 C38.09321487 64.19325638 38.82143951 64.17777252 39.57173157 64.16181946 C44.61299763 64.16014076 44.61299763 64.16014076 47.0559082 65.88964844 C49.12015052 69.09072689 48.48022396 72.84644175 48.09545898 76.50170898 C46.73182262 80.86534535 46.73182262 80.86534535 45.09545898 82.50170898 C43.55191206 82.61577466 42.00322405 82.66127824 40.45556641 82.67871094 C39.46751511 82.69154617 38.47946381 82.70438141 37.46147156 82.71760559 C36.3854921 82.72499252 35.30951263 82.73237946 34.20092773 82.73999023 C33.10202713 82.74806198 32.00312653 82.75613373 30.8709259 82.76445007 C28.53978055 82.77831037 26.20861474 82.78902377 23.87744141 82.796875 C20.30844717 82.81408607 16.74037928 82.85795574 13.17163086 82.90209961 C10.91056999 82.91222605 8.64950121 82.9207423 6.38842773 82.92749023 C4.78356758 82.95375237 4.78356758 82.95375237 3.14628601 82.98054504 C2.14877823 82.97761948 1.15127045 82.97469391 0.12353516 82.97167969 C-0.75281082 82.97754593 -1.6291568 82.98341217 -2.53205872 82.98945618 C-5.84140841 82.30910293 -6.95419382 81.24839412 -8.90454102 78.50170898 C-9.41247559 75.23828125 -9.41247559 75.23828125 -9.42211914 71.31811523 C-9.42912842 70.60219208 -9.4361377 69.88626892 -9.44335938 69.14865112 C-9.46093649 66.78677355 -9.44931877 64.42609832 -9.43579102 62.06420898 C-9.43848604 60.42040782 -9.44236855 58.77660821 -9.4473877 57.1328125 C-9.45328232 53.6895427 -9.4447213 50.24668827 -9.42602539 46.8034668 C-9.40323543 42.39137206 -9.41635877 37.98025056 -9.44031525 33.56819153 C-9.45477445 30.17436397 -9.45016677 26.7807669 -9.43980408 23.38693237 C-9.43713711 21.76024256 -9.44040554 20.13353177 -9.44972229 18.50686646 C-9.45989044 16.2324487 -9.44438578 13.95960344 -9.42211914 11.68530273 C-9.41893677 10.39164795 -9.41575439 9.09799316 -9.41247559 7.76513672 C-8.90454102 4.50170898 -8.90454102 4.50170898 -7.1787262 2.08409119 C-4.52715821 0.23912534 -3.20330536 0.00062435 0 0 Z " fill="#4B49D4" transform="translate(569.904541015625,736.498291015625)"/>
<path d="M0 0 C0.74121094 -0.03738281 1.48242188 -0.07476563 2.24609375 -0.11328125 C6.69429782 0.70434817 9.17093893 3.75604038 11.69067383 7.33691406 C12.39329744 8.49483761 13.08586876 9.65890625 13.76953125 10.828125 C14.32491829 11.7518692 14.32491829 11.7518692 14.89152527 12.6942749 C16.06168443 14.6451336 17.21846288 16.60354148 18.375 18.5625 C19.17035001 19.89375169 19.96656555 21.22448668 20.76367188 22.5546875 C22.70667609 25.80140135 24.63772696 29.05494774 26.5625 32.3125 C29.3925155 28.9263343 31.69704547 25.53446031 33.83984375 21.6796875 C34.73413086 20.09994141 34.73413086 20.09994141 35.64648438 18.48828125 C36.88456538 16.28347946 38.11632172 14.07511446 39.34179688 11.86328125 C40.23801758 10.28740234 40.23801758 10.28740234 41.15234375 8.6796875 C41.68722412 7.72175293 42.22210449 6.76381836 42.77319336 5.77685547 C45.18133283 2.4602011 47.74948302 0.63411345 51.80859375 -0.0859375 C56.97999837 -0.03062836 61.674454 0.424454 65.5625 4.3125 C65.98310105 9.01604062 65.26899131 11.49151577 62.6328125 15.3671875 C61.69356934 16.77315186 61.69356934 16.77315186 60.73535156 18.20751953 C60.05956055 19.19091309 59.38376953 20.17430664 58.6875 21.1875 C57.30868336 23.24397925 55.93108427 25.30127535 54.5546875 27.359375 C53.8750293 28.36806641 53.19537109 29.37675781 52.49511719 30.41601562 C49.85400572 34.37434641 47.31806175 38.39243447 44.8125 42.4375 C44.41949707 43.06897949 44.02649414 43.70045898 43.62158203 44.35107422 C42.59693517 46.00181876 41.57940662 47.65697602 40.5625 49.3125 C40.03487061 50.07336914 39.50724121 50.83423828 38.96362305 51.61816406 C37.28906931 54.83830259 37.19382007 56.98672996 37.19140625 60.6015625 C37.17400391 61.79007813 37.15660156 62.97859375 37.13867188 64.203125 C37.12952873 66.70050953 37.1243449 69.19791157 37.12304688 71.6953125 C37.10435547 72.88125 37.08566406 74.0671875 37.06640625 75.2890625 C37.06455322 76.37268066 37.0627002 77.45629883 37.06079102 78.57275391 C36.5625 81.3125 36.5625 81.3125 34.71069336 83.16186523 C31.88675632 84.67444795 29.75510829 84.74600924 26.5625 84.75 C25.53125 84.76933594 24.5 84.78867187 23.4375 84.80859375 C19.81835234 84.18409409 18.81777908 83.16820269 16.5625 80.3125 C16.23876953 77.72900391 16.23876953 77.72900391 16.4453125 74.7890625 C17.09238763 57.51801577 13.89187551 47.66062025 3.53173828 33.953125 C0.24929501 29.55157448 -2.74090119 24.96553231 -5.75 20.375 C-6.30655273 19.56426025 -6.86310547 18.75352051 -7.43652344 17.91821289 C-10.53155634 13.28978499 -12.1619625 9.90516652 -12.4375 4.3125 C-8.42848869 1.01938357 -5.13477111 0.16908258 0 0 Z " fill="#4C4BD5" transform="translate(300.4375,735.6875)"/>
<path d="M0 0 C1.65521667 -0.00596695 1.65521667 -0.00596695 3.34387207 -0.01205444 C4.59526978 -0.02781525 5.84666748 -0.04357605 7.13598633 -0.05981445 C8.50281655 -0.05086491 9.86963876 -0.04060998 11.2364502 -0.02914429 C12.63745546 -0.03251251 14.03845787 -0.03736518 15.43945312 -0.04364014 C18.37516104 -0.05101147 21.3101081 -0.04029938 24.24572754 -0.01693726 C28.00916852 0.01155285 31.77082701 -0.00485004 35.53420258 -0.03479958 C38.42707759 -0.05286682 41.31952986 -0.04711766 44.2124176 -0.03416061 C45.59990144 -0.0308249 46.98742364 -0.03491965 48.37486267 -0.04655838 C50.31374377 -0.05925351 52.25275942 -0.03647238 54.19152832 -0.01205444 C55.2950061 -0.00807648 56.39848389 -0.00409851 57.53540039 0 C60.2677002 0.63491821 60.2677002 0.63491821 62.12255859 3.01690674 C63.33831516 5.79635745 63.67069294 7.67886753 63.6427002 10.69741821 C63.65430176 11.95232056 63.65430176 11.95232056 63.6661377 13.23257446 C63.17418559 16.19875626 62.33279396 17.46109059 60.2677002 19.63491821 C57.99938965 20.08901978 57.99938965 20.08901978 55.38098145 20.02554321 C54.44318848 20.01265259 53.50539551 19.99976196 52.53918457 19.98648071 C51.56271973 19.95296509 50.58625488 19.91944946 49.5802002 19.88491821 C48.59213379 19.86687134 47.60406738 19.84882446 46.58605957 19.83023071 C44.14563177 19.78307269 41.7071525 19.71727863 39.2677002 19.63491821 C39.27436203 20.37994095 39.28102386 21.12496368 39.28788757 21.89256287 C39.34798053 28.91119907 39.39366522 35.92974628 39.42313671 42.94856739 C39.4387977 46.55710124 39.46004335 50.16542265 39.49401855 53.77383423 C39.52659736 57.25569944 39.54454995 60.73736022 39.55233192 64.21936607 C39.56057875 66.19533918 39.58400058 68.17122996 39.60758972 70.14707947 C39.60781631 71.34809799 39.60804291 72.54911652 39.60827637 73.78652954 C39.6149382 74.84576126 39.62160004 75.90499298 39.62846375 76.99632263 C39.2677002 79.63491821 39.2677002 79.63491821 37.87239075 81.46406555 C33.77351557 84.45478479 28.09887238 83.74046389 23.3302002 83.13491821 C20.2677002 81.63491821 20.2677002 81.63491821 19.0748291 78.83584595 C17.71043327 73.28668234 18.13476551 67.58764894 18.2911377 61.92007446 C18.31616364 60.70919662 18.34118958 59.49831879 18.36697388 58.25074768 C18.44886681 54.39934006 18.5455765 50.54846887 18.6427002 46.69741821 C18.70097102 44.07960128 18.75827361 41.46176261 18.8145752 38.84390259 C18.95440004 32.44061339 19.10637765 26.03769993 19.2677002 19.63491821 C18.61696533 19.65586548 17.96623047 19.67681274 17.29577637 19.69839478 C14.34907464 19.7815116 11.40261929 19.83356306 8.4552002 19.88491821 C7.43104004 19.91843384 6.40687988 19.95194946 5.35168457 19.98648071 C4.36877441 19.99937134 3.38586426 20.01226196 2.37316895 20.02554321 C1.01421509 20.05696411 1.01421509 20.05696411 -0.37219238 20.08901978 C-2.7322998 19.63491821 -2.7322998 19.63491821 -4.52648926 17.76065063 C-5.96658362 15.22189753 -6.13416197 13.60300918 -6.1072998 10.69741821 C-6.11503418 9.86339478 -6.12276855 9.02937134 -6.1307373 8.17007446 C-5.4671479 3.94782421 -4.37374645 1.0163494 0 0 Z " fill="#4B4AD4" transform="translate(475.7322998046875,736.3650817871094)"/>
<path d="M0 0 C7.30975282 4.2729244 12.3738544 9.92925971 14.87109375 18.09375 C16.43092193 27.57178995 14.39125357 35.27156608 8.87109375 43.09375 C6.43087044 45.63439403 3.9601597 47.41682848 0.87109375 49.09375 C0.26652344 49.43019531 -0.33804688 49.76664062 -0.9609375 50.11328125 C-7.72794478 53.23322776 -15.92032851 53.39269375 -22.9765625 51.21484375 C-30.88800848 47.59920554 -35.28111279 42.73097262 -38.50390625 34.71875 C-41.06845217 26.83115499 -41.14374744 20.70291788 -37.37109375 13.22265625 C-29.78466006 0.22074946 -14.34290213 -6.44088744 0 0 Z " fill="#005499" transform="translate(657.12890625,393.90625)"/>
<path d="M0 0 C3.0625 1.625 3.0625 1.625 5 5 C6.28958859 15.75571758 4.95387862 27.29865437 0 37 C-2 39 -2 39 -5.4375 39.375 C-9 39 -9 39 -10.6171875 37.296875 C-14.88514204 30.20773017 -15.34348138 21.65552497 -15.5625 13.5625 C-15.62087036 12.40886963 -15.62087036 12.40886963 -15.68041992 11.23193359 C-15.69570059 8.13301452 -15.68175378 5.91064882 -13.78491211 3.37695312 C-9.36980554 -0.57255528 -5.60616352 -1.19543193 0 0 Z " fill="#FCF21D" transform="translate(715,259)"/>
<path d="M0 0 C7.54100075 3.67319714 17.21892095 11.43784191 21 19 C21.3125 21.9375 21.3125 21.9375 21 25 C19.4375 26.875 19.4375 26.875 17 28 C11.60121727 28.40408067 7.41841979 27.39887313 2.5 25.3125 C1.84362549 25.04066895 1.18725098 24.76883789 0.51098633 24.48876953 C-4.94127392 22.16227263 -9.73527736 19.8309033 -13.5 15.125 C-14.31866008 11.64569467 -14.00861645 9.44116202 -13 6 C-9.25341815 1.29618707 -6.12524324 -0.68058258 0 0 Z " fill="#FCF11E" transform="translate(665,285)"/>
<path d="M0 0 C2.30656808 2.30656808 3.58416032 5.087537 5 8 C5.54269531 9.09957031 6.08539062 10.19914062 6.64453125 11.33203125 C9.75917399 18.06461965 12.29824977 23.56456949 11 31 C8.96017155 34.15844405 7.45362563 35.5557636 3.83984375 36.66015625 C-0.18163125 37.35166197 -2.07823392 37.56547583 -5.66796875 35.36328125 C-11.9816935 28.96495047 -11.34023175 17.55298566 -11.3984375 9.09375 C-10.9564599 5.66192397 -10.05124316 3.76167372 -8 1 C-4.99449319 -0.50275341 -3.33001693 -0.58765005 0 0 Z " fill="#FBF11E" transform="translate(767,403)"/>
<path d="M0 0 C1.01574097 0.22236328 1.01574097 0.22236328 2.05200195 0.44921875 C7.0820555 1.71243759 10.16471669 3.59220723 13.8125 7.3125 C14.84356104 10.10429604 14.60269025 12.45743303 13.8125 15.3125 C10.80917082 19.02714398 8.63108842 21.08033978 3.875 21.6875 C-5.27644489 21.53529302 -15.87020215 14.62979785 -22.1875 8.3125 C-22.625 5.4375 -22.625 5.4375 -22.1875 2.3125 C-16.48588884 -4.67657174 -7.65477905 -1.76386268 0 0 Z " fill="#FCF21E" transform="translate(801.1875,377.6875)"/>
<path d="M0 0 C15.51 0 31.02 0 47 0 C47 0.66 47 1.32 47 2 C31.49 2.33 15.98 2.66 0 3 C0 2.01 0 1.02 0 0 Z " fill="#3737D0" transform="translate(565,737)"/>
<path d="M0 0 C0 0.66 0 1.32 0 2 C-1.2065625 3.175625 -1.2065625 3.175625 -2.4375 4.375 C-5.95676349 7.98009918 -6.09814634 10.73127811 -6.24609375 15.625 C-6.27896484 16.49640625 -6.31183594 17.3678125 -6.34570312 18.265625 C-6.40689678 20.08841485 -6.46418924 21.91133986 -6.51757812 23.734375 C-6.55173828 24.60578125 -6.58589844 25.4771875 -6.62109375 26.375 C-6.6461499 27.16648437 -6.67120605 27.95796875 -6.69702148 28.7734375 C-7.0278751 31.20485164 -7.7905209 32.88046274 -9 35 C-9.05869332 31.50007197 -9.09382709 28.0002728 -9.125 24.5 C-9.14175781 23.51773437 -9.15851563 22.53546875 -9.17578125 21.5234375 C-9.26779514 7.72135417 -9.26779514 7.72135417 -4.5 2 C-2 0 -2 0 0 0 Z " fill="#2975BE" transform="translate(351,477)"/>
<path d="M0 0 C1.10601563 -0.01417969 2.21203125 -0.02835937 3.3515625 -0.04296875 C6.2750427 0.17988052 7.90958529 0.66615872 10.375 2.1875 C-7.09375 4.875 -7.09375 4.875 -12.625 1.1875 C-8.37515382 0.3850366 -4.3240057 0.02531619 0 0 Z " fill="#92D157" transform="translate(784.625,449.8125)"/>
<path d="M0 0 C0.66 0.33 1.32 0.66 2 1 C-0.33333333 3.33333333 -2.66666667 5.66666667 -5 8 C-5.99 8 -6.98 8 -8 8 C-8.66 9.32 -9.32 10.64 -10 12 C-11.32 11.67 -12.64 11.34 -14 11 C-12.41728767 9.72839334 -10.83380365 8.45774715 -9.25 7.1875 C-8.36828125 6.47980469 -7.4865625 5.77210938 -6.578125 5.04296875 C-4.41007071 3.32494998 -2.22271099 1.64626024 0 0 Z " fill="#298FD7" transform="translate(635,367)"/>
<path d="M0 0 C3.90285767 1.58667578 6.33520982 4.13350481 9.25 7.125 C10.14203125 8.03507812 11.0340625 8.94515625 11.953125 9.8828125 C12.62859375 10.58148438 13.3040625 11.28015625 14 12 C13.34 12.66 12.68 13.32 12 14 C9.99387601 12.04761147 7.99507567 10.08862178 6 8.125 C5.42765625 7.56941406 4.8553125 7.01382812 4.265625 6.44140625 C2.80549218 4.99865596 1.39850702 3.5025626 0 2 C0 1.34 0 0.68 0 0 Z " fill="#99D35E" transform="translate(632,307)"/>
<path d="M0 0 C0.33 0 0.66 0 1 0 C1.05447047 1.41623216 1.09300508 2.83308191 1.125 4.25 C1.14820313 5.03890625 1.17140625 5.8278125 1.1953125 6.640625 C0.98012709 9.24006473 0.26013039 10.7410996 -1 13 C-1.33 13.99 -1.66 14.98 -2 16 C-2.66 15.67 -3.32 15.34 -4 15 C-3.52229477 13.06213915 -3.04278429 11.12472326 -2.5625 9.1875 C-2.29566406 8.10855469 -2.02882812 7.02960938 -1.75390625 5.91796875 C-1.23922588 3.9259157 -0.65062825 1.95188476 0 0 Z " fill="#FC3339" transform="translate(210,321)"/>
<path d="M0 0 C1.98 0 3.96 0 6 0 C6 0.66 6 1.32 6 2 C9.3 2 12.6 2 16 2 C12.16457543 4.55694972 10.34097467 4.04045639 5.8125 3.625 C3.90404297 3.45871094 3.90404297 3.45871094 1.95703125 3.2890625 C0.98121094 3.19367187 0.00539062 3.09828125 -1 3 C-0.67 2.01 -0.34 1.02 0 0 Z " fill="#5554D6" transform="translate(226,817)"/>
<path d="M0 0 C0.66 0 1.32 0 2 0 C3.14077657 3.42232972 3.09815117 6.08673217 3.0625 9.6875 C3.05347656 10.86699219 3.04445313 12.04648437 3.03515625 13.26171875 C3.02355469 14.16535156 3.01195312 15.06898438 3 16 C1.37395019 13.09822819 0.67706561 10.74344034 0.375 7.4375 C0.30023438 6.67308594 0.22546875 5.90867187 0.1484375 5.12109375 C0.02921815 3.41751205 0 1.70774819 0 0 Z " fill="#5654D6" transform="translate(448,786)"/>
<path d="M0 0 C1.0326802 2.78823655 1.04509293 3.8677274 0.0625 6.75 C-0.288125 7.4925 -0.63875 8.235 -1 9 C-0.34 9.33 0.32 9.66 1 10 C2.03145371 11.30915279 3.03542166 12.64082143 4 14 C1 14 1 14 -1.25 11.875 C-3 9 -3 9 -2.875 5.875 C-2 3 -2 3 0 0 Z " fill="#5856D6" transform="translate(205,797)"/>
<path d="M0 0 C0.66 0.33 1.32 0.66 2 1 C0.93119777 2.34500955 -0.15562508 3.67571438 -1.25 5 C-1.85328125 5.7425 -2.4565625 6.485 -3.078125 7.25 C-5 9 -5 9 -9 9 C-7.83709195 5.51127585 -6.86032391 4.90023136 -3.9375 2.8125 C-3.20402344 2.28269531 -2.47054688 1.75289062 -1.71484375 1.20703125 C-1.14894531 0.80871094 -0.58304687 0.41039062 0 0 Z " fill="#FD3238" transform="translate(318,172)"/>
<path d="M0 0 C4.29 0.66 8.58 1.32 13 2 C13 2.66 13 3.32 13 4 C8.17639811 4.19294408 4.50353262 3.75747614 0 2 C0 1.34 0 0.68 0 0 Z " fill="#2D8ED6" transform="translate(629,465)"/>
<path d="M0 0 C0.66 0.33 1.32 0.66 2 1 C1.47599609 1.83144531 1.47599609 1.83144531 0.94140625 2.6796875 C0.48636719 3.40414062 0.03132812 4.12859375 -0.4375 4.875 C-0.88996094 5.59429688 -1.34242188 6.31359375 -1.80859375 7.0546875 C-3.02461501 8.9777547 -3.02461501 8.9777547 -4 11 C-4.66 11 -5.32 11 -6 11 C-5.62671065 5.64951939 -4.0042343 3.49087093 0 0 Z " fill="#403FD2" transform="translate(213,743)"/>
<path d="M0 0 C0.66 0.33 1.32 0.66 2 1 C2 3.64 2 6.28 2 9 C1.01 9 0.02 9 -1 9 C-1.09765625 2.84765625 -1.09765625 2.84765625 -1 1 C-0.67 0.67 -0.34 0.34 0 0 Z " fill="#5757D5" transform="translate(616,742)"/>
<path d="M0 0 C0 0.66 0 1.32 0 2 C-1.2065625 3.175625 -1.2065625 3.175625 -2.4375 4.375 C-4.81810326 6.81366675 -5.63635918 7.7272326 -6 11 C-6.66 11 -7.32 11 -8 11 C-7.71915428 6.97454466 -7.21634296 5.25517374 -4.5625 2.125 C-2 0 -2 0 0 0 Z " fill="#347BC3" transform="translate(351,477)"/>
<path d="M0 0 C-2.39763185 2.39763185 -3.33273498 2.34280586 -6.625 2.625 C-7.44226563 2.69976563 -8.25953125 2.77453125 -9.1015625 2.8515625 C-9.72804688 2.90054688 -10.35453125 2.94953125 -11 3 C-11 2.34 -11 1.68 -11 1 C-3.57142857 -1.42857143 -3.57142857 -1.42857143 0 0 Z " fill="#5756D7" transform="translate(435,817)"/>
<path d="M0 0 C0 3 0 3 -1.875 5.1875 C-4 7 -4 7 -6 7 C-5.8125 5.1875 -5.8125 5.1875 -5 3 C-2.4375 1.25 -2.4375 1.25 0 0 Z " fill="#238DD6" transform="translate(618,382)"/>
<path d="M0 0 C0.66 0.33 1.32 0.66 2 1 C-1.49087093 5.0042343 -3.64951939 6.62671065 -9 7 C-6.03716687 4.61327331 -3.05729491 2.2646629 0 0 Z " fill="#2D8FD9" transform="translate(659,351)"/>
<path d="M0 0 C0.33 0.66 0.66 1.32 1 2 C1.66 2 2.32 2 3 2 C4.32 4.64 5.64 7.28 7 10 C6.01 10.495 6.01 10.495 5 11 C4.15841464 9.73461631 3.32700252 8.46246221 2.5 7.1875 C1.80390625 6.12595703 1.80390625 6.12595703 1.09375 5.04296875 C0 3 0 3 0 0 Z " fill="#367BC2" transform="translate(312,676)"/>
<path d="M0 0 C1.5 1.375 1.5 1.375 3 3 C3 3.66 3 4.32 3 5 C0.69 5.66 -1.62 6.32 -4 7 C-2.68 4.69 -1.36 2.38 0 0 Z " fill="#95D34C" transform="translate(807,312)"/>
<path d="M0 0 C0.33 0.66 0.66 1.32 1 2 C-4.625 6 -4.625 6 -8 6 C-7.67 5.01 -7.34 4.02 -7 3 C-3.4375 1.3125 -3.4375 1.3125 0 0 Z " fill="#FD343B" transform="translate(329,166)"/>
<path d="M0 0 C0 0.33 0 0.66 0 1 C-0.69867188 1.12117187 -1.39734375 1.24234375 -2.1171875 1.3671875 C-3.48230469 1.61855469 -3.48230469 1.61855469 -4.875 1.875 C-5.77992188 2.03742187 -6.68484375 2.19984375 -7.6171875 2.3671875 C-10.16505988 2.83044703 -10.16505988 2.83044703 -12 5 C-12.66 4.34 -13.32 3.68 -14 3 C-9.43672206 -0.53286034 -5.50366792 -0.32374517 0 0 Z " fill="#6E6FDC" transform="translate(359,736)"/>
<path d="M0 0 C0.99 0.33 1.98 0.66 3 1 C3 1.66 3 2.32 3 3 C3.66 3.33 4.32 3.66 5 4 C4.67 4.66 4.34 5.32 4 6 C4.99 6.33 5.98 6.66 7 7 C6.34 7.66 5.68 8.32 5 9 C4.16094435 7.87926138 3.32892169 6.75325453 2.5 5.625 C2.0359375 4.99851562 1.571875 4.37203125 1.09375 3.7265625 C0 2 0 2 0 0 Z " fill="#3291D8" transform="translate(602,441)"/>
<path d="M0 0 C1.98 0.495 1.98 0.495 4 1 C2.63016497 4.16115776 2.0109362 4.9927092 -1 7 C-0.67 4.69 -0.34 2.38 0 0 Z " fill="#007FDF" transform="translate(737,392)"/>
<path d="M0 0 C0.33 1.32 0.66 2.64 1 4 C-0.98 4.99 -2.96 5.98 -5 7 C-5.99 6.34 -6.98 5.68 -8 5 C-6.865625 4.54625 -5.73125 4.0925 -4.5625 3.625 C-0.95278308 2.42904194 -0.95278308 2.42904194 0 0 Z " fill="#6364D9" transform="translate(430,797)"/>
<path d="M0 0 C1.98 1.65 3.96 3.3 6 5 C5.34 5.66 4.68 6.32 4 7 C2.35 5.02 0.7 3.04 -1 1 C-0.67 0.67 -0.34 0.34 0 0 Z " fill="#4385C6" transform="translate(323,692)"/>
<path d="M0 0 C1.32 0.33 2.64 0.66 4 1 C2.35 2.65 0.7 4.3 -1 6 C-1.66 5.67 -2.32 5.34 -3 5 C-2.01 3.35 -1.02 1.7 0 0 Z " fill="#2071BD" transform="translate(437,480)"/>
<path d="M0 0 C2.12508244 3.18762365 2.5020163 5.26512223 3 9 C2.01 9 1.02 9 0 9 C0 6.03 0 3.06 0 0 Z " fill="#96D15C" transform="translate(823,353)"/>
<path d="" fill="#FAFFEE" transform="translate(0,0)"/>
</svg>
